M48
; DRILL file {KiCad 9.0.2} date 2025-06-30T12:44:24+0200
; FORMAT={-:-/ absolute / metric / decimal}
; #@! TF.CreationDate,2025-06-30T12:44:24+02:00
; #@! TF.GenerationSoftware,Kicad,Pcbnew,9.0.2
; #@! TF.FileFunction,Plated,1,2,PTH
FMAT,2
METRIC
; #@! TA.AperFunction,Plated,PTH,ViaDrill
T1C0.400
; #@! TA.AperFunction,Plated,PTH,ComponentDrill
T2C0.800
; #@! TA.AperFunction,Plated,PTH,ComponentDrill
T3C0.889
; #@! TA.AperFunction,Plated,PTH,ComponentDrill
T4C1.500
%
G90
G05
T1
X31.035Y-40.948
X34.093Y-54.065
X40.409Y-71.982
X41.241Y-90.568
X41.364Y-57.198
X41.531Y-80.759
X42.696Y-36.683
X42.951Y-90.221
X46.609Y-47.573
X50.884Y-38.566
X53.459Y-91.102
X54.035Y-88.766
X54.475Y-52.38
X58.704Y-95.882
X58.854Y-40.401
X58.854Y-60.059
X59.304Y-71.261
X59.959Y-56.733
X59.959Y-76.223
X69.682Y-60.059
X70.086Y-38.475
X73.582Y-40.586
X74.021Y-52.211
X75.783Y-27.682
X78.354Y-71.261
X78.358Y-90.439
X78.364Y-58.471
X79.363Y-76.223
X80.251Y-92.926
X82.619Y-55.544
X90.222Y-73.962
X90.726Y-52.329
X97.72Y-76.392
X97.726Y-39.453
X98.018Y-56.733
X98.853Y-95.712
T2
X29.59Y-22.6
X29.59Y-41.7
X29.59Y-79.8
X29.6Y-60.7
X37.21Y-22.6
X37.21Y-41.7
X37.21Y-79.8
X37.22Y-60.7
X48.59Y-41.7
X48.59Y-60.7
X48.69Y-22.7
X48.69Y-79.8
X56.21Y-41.7
X56.21Y-60.7
X56.31Y-22.7
X56.31Y-79.8
X67.68Y-79.8
X67.69Y-22.6
X67.69Y-41.7
X67.69Y-60.7
X75.3Y-79.8
X75.31Y-22.6
X75.31Y-41.7
X75.31Y-60.7
X76.59Y-19.0
X84.21Y-19.0
X86.68Y-60.7
X86.68Y-79.8
X86.69Y-41.7
X94.3Y-60.7
X94.3Y-79.8
X94.31Y-41.7
T3
X87.625Y-20.791
X87.625Y-23.331
X87.625Y-25.871
X87.625Y-28.411
X87.625Y-30.951
X87.625Y-33.491
X87.625Y-36.031
X102.865Y-20.791
X102.865Y-23.331
X102.865Y-25.871
X102.865Y-28.411
X102.865Y-30.951
X102.865Y-33.491
X102.865Y-36.031
T4
X34.29Y-28.416
X34.29Y-47.466
X34.29Y-66.516
X34.29Y-85.566
X40.64Y-25.876
X40.64Y-44.926
X40.64Y-63.976
X40.64Y-83.026
X53.34Y-28.416
X53.34Y-47.466
X53.34Y-66.516
X53.34Y-85.566
X59.69Y-25.876
X59.69Y-44.926
X59.69Y-63.976
X59.69Y-83.026
X72.39Y-28.416
X72.39Y-47.466
X72.39Y-66.516
X72.39Y-85.566
X78.74Y-25.876
X78.74Y-44.926
X78.74Y-63.976
X78.74Y-83.026
X91.44Y-28.416
X91.44Y-47.466
X91.44Y-66.516
X91.44Y-85.566
X97.79Y-25.876
X97.79Y-44.926
X97.79Y-63.976
X97.79Y-83.026
M30
