%TF.GenerationSoftware,KiCad,Pcbnew,9.0.2*%
%TF.CreationDate,2025-06-30T11:30:22+02:00*%
%TF.ProjectId,HackPad,4861636b-5061-4642-9e6b-696361645f70,rev?*%
%TF.SameCoordinates,Original*%
%TF.FileFunction,Copper,L2,Bot*%
%TF.FilePolarity,Positive*%
%FSLAX46Y46*%
G04 Gerber Fmt 4.6, Leading zero omitted, Abs format (unit mm)*
G04 Created by KiCad (PCBNEW 9.0.2) date 2025-06-30 11:30:22*
%MOMM*%
%LPD*%
G01*
G04 APERTURE LIST*
G04 Aperture macros list*
%AMRoundRect*
0 Rectangle with rounded corners*
0 $1 Rounding radius*
0 $2 $3 $4 $5 $6 $7 $8 $9 X,Y pos of 4 corners*
0 Add a 4 corners polygon primitive as box body*
4,1,4,$2,$3,$4,$5,$6,$7,$8,$9,$2,$3,0*
0 Add four circle primitives for the rounded corners*
1,1,$1+$1,$2,$3*
1,1,$1+$1,$4,$5*
1,1,$1+$1,$6,$7*
1,1,$1+$1,$8,$9*
0 Add four rect primitives between the rounded corners*
20,1,$1+$1,$2,$3,$4,$5,0*
20,1,$1+$1,$4,$5,$6,$7,0*
20,1,$1+$1,$6,$7,$8,$9,0*
20,1,$1+$1,$8,$9,$2,$3,0*%
G04 Aperture macros list end*
%TA.AperFunction,ComponentPad*%
%ADD10C,2.200000*%
%TD*%
%TA.AperFunction,ComponentPad*%
%ADD11RoundRect,0.250000X-0.550000X-0.550000X0.550000X-0.550000X0.550000X0.550000X-0.550000X0.550000X0*%
%TD*%
%TA.AperFunction,ComponentPad*%
%ADD12C,1.600000*%
%TD*%
%TA.AperFunction,SMDPad,CuDef*%
%ADD13RoundRect,0.152400X-1.063600X-0.609600X1.063600X-0.609600X1.063600X0.609600X-1.063600X0.609600X0*%
%TD*%
%TA.AperFunction,ComponentPad*%
%ADD14C,1.524000*%
%TD*%
%TA.AperFunction,SMDPad,CuDef*%
%ADD15RoundRect,0.152400X1.063600X0.609600X-1.063600X0.609600X-1.063600X-0.609600X1.063600X-0.609600X0*%
%TD*%
%TA.AperFunction,SMDPad,CuDef*%
%ADD16R,1.450000X0.820000*%
%TD*%
%TA.AperFunction,SMDPad,CuDef*%
%ADD17RoundRect,0.205000X-0.520000X-0.205000X0.520000X-0.205000X0.520000X0.205000X-0.520000X0.205000X0*%
%TD*%
%TA.AperFunction,ViaPad*%
%ADD18C,0.800000*%
%TD*%
%TA.AperFunction,Conductor*%
%ADD19C,0.250000*%
%TD*%
G04 APERTURE END LIST*
D10*
%TO.P,SW6,1,1*%
%TO.N,Net-(U1-GPIO27{slash}ADC1{slash}A1)*%
X59690000Y-44926200D03*
%TO.P,SW6,2,2*%
%TO.N,Net-(D27-A)*%
X53340000Y-47466200D03*
%TD*%
%TO.P,SW13,1,1*%
%TO.N,Net-(U1-GPIO29{slash}ADC3{slash}A3)*%
X40640000Y-83026200D03*
%TO.P,SW13,2,2*%
%TO.N,Net-(D20-A)*%
X34290000Y-85566200D03*
%TD*%
%TO.P,SW8,1,1*%
%TO.N,Net-(U1-GPIO27{slash}ADC1{slash}A1)*%
X97790000Y-44926200D03*
%TO.P,SW8,2,2*%
%TO.N,Net-(D25-A)*%
X91440000Y-47466200D03*
%TD*%
%TO.P,SW9,1,1*%
%TO.N,Net-(U1-GPIO28{slash}ADC2{slash}A2)*%
X40640000Y-63976200D03*
%TO.P,SW9,2,2*%
%TO.N,Net-(D24-A)*%
X34290000Y-66516200D03*
%TD*%
%TO.P,SW12,1,1*%
%TO.N,Net-(U1-GPIO28{slash}ADC2{slash}A2)*%
X97790000Y-63976200D03*
%TO.P,SW12,2,2*%
%TO.N,Net-(D21-A)*%
X91440000Y-66516200D03*
%TD*%
%TO.P,SW1,1,1*%
%TO.N,Net-(U1-GPIO26{slash}ADC0{slash}A0)*%
X40640000Y-25876200D03*
%TO.P,SW1,2,2*%
%TO.N,Net-(D32-A)*%
X34290000Y-28416200D03*
%TD*%
%TO.P,SW4,1,1*%
%TO.N,Net-(U1-GPIO26{slash}ADC0{slash}A0)*%
X97790000Y-25876200D03*
%TO.P,SW4,2,2*%
%TO.N,Net-(D29-A)*%
X91440000Y-28416200D03*
%TD*%
%TO.P,SW3,1,1*%
%TO.N,Net-(U1-GPIO26{slash}ADC0{slash}A0)*%
X78740000Y-25876200D03*
%TO.P,SW3,2,2*%
%TO.N,Net-(D30-A)*%
X72390000Y-28416200D03*
%TD*%
%TO.P,SW15,1,1*%
%TO.N,Net-(U1-GPIO29{slash}ADC3{slash}A3)*%
X78740000Y-83026200D03*
%TO.P,SW15,2,2*%
%TO.N,Net-(D18-A)*%
X72390000Y-85566200D03*
%TD*%
%TO.P,SW16,1,1*%
%TO.N,Net-(U1-GPIO29{slash}ADC3{slash}A3)*%
X97790000Y-83026200D03*
%TO.P,SW16,2,2*%
%TO.N,Net-(D17-A)*%
X91440000Y-85566200D03*
%TD*%
%TO.P,SW2,1,1*%
%TO.N,Net-(U1-GPIO26{slash}ADC0{slash}A0)*%
X59690000Y-25876200D03*
%TO.P,SW2,2,2*%
%TO.N,Net-(D31-A)*%
X53340000Y-28416200D03*
%TD*%
%TO.P,SW14,1,1*%
%TO.N,Net-(U1-GPIO29{slash}ADC3{slash}A3)*%
X59690000Y-83026200D03*
%TO.P,SW14,2,2*%
%TO.N,Net-(D19-A)*%
X53340000Y-85566200D03*
%TD*%
%TO.P,SW7,1,1*%
%TO.N,Net-(U1-GPIO27{slash}ADC1{slash}A1)*%
X78740000Y-44926200D03*
%TO.P,SW7,2,2*%
%TO.N,Net-(D26-A)*%
X72390000Y-47466200D03*
%TD*%
%TO.P,SW5,1,1*%
%TO.N,Net-(U1-GPIO27{slash}ADC1{slash}A1)*%
X40640000Y-44926200D03*
%TO.P,SW5,2,2*%
%TO.N,Net-(D28-A)*%
X34290000Y-47466200D03*
%TD*%
%TO.P,SW11,1,1*%
%TO.N,Net-(U1-GPIO28{slash}ADC2{slash}A2)*%
X78740000Y-63976200D03*
%TO.P,SW11,2,2*%
%TO.N,Net-(D22-A)*%
X72390000Y-66516200D03*
%TD*%
%TO.P,SW10,1,1*%
%TO.N,Net-(U1-GPIO28{slash}ADC2{slash}A2)*%
X59690000Y-63976200D03*
%TO.P,SW10,2,2*%
%TO.N,Net-(D23-A)*%
X53340000Y-66516200D03*
%TD*%
D11*
%TO.P,D21,1,K*%
%TO.N,Net-(D17-K)*%
X86680000Y-60700000D03*
D12*
%TO.P,D21,2,A*%
%TO.N,Net-(D21-A)*%
X94300000Y-60700000D03*
%TD*%
D11*
%TO.P,D19,1,K*%
%TO.N,Net-(D19-K)*%
X48690000Y-79800000D03*
D12*
%TO.P,D19,2,A*%
%TO.N,Net-(D19-A)*%
X56310000Y-79800000D03*
%TD*%
D11*
%TO.P,D29,1,K*%
%TO.N,Net-(D17-K)*%
X76590000Y-19000000D03*
D12*
%TO.P,D29,2,A*%
%TO.N,Net-(D29-A)*%
X84210000Y-19000000D03*
%TD*%
D13*
%TO.P,U1,1,GPIO26/ADC0/A0*%
%TO.N,Net-(U1-GPIO26{slash}ADC0{slash}A0)*%
X103700000Y-20791200D03*
D14*
X102865000Y-20791200D03*
D13*
%TO.P,U1,2,GPIO27/ADC1/A1*%
%TO.N,Net-(U1-GPIO27{slash}ADC1{slash}A1)*%
X103700000Y-23331200D03*
D14*
X102865000Y-23331200D03*
D13*
%TO.P,U1,3,GPIO28/ADC2/A2*%
%TO.N,Net-(U1-GPIO28{slash}ADC2{slash}A2)*%
X103700000Y-25871200D03*
D14*
X102865000Y-25871200D03*
D13*
%TO.P,U1,4,GPIO29/ADC3/A3*%
%TO.N,Net-(U1-GPIO29{slash}ADC3{slash}A3)*%
X103700000Y-28411200D03*
D14*
X102865000Y-28411200D03*
D13*
%TO.P,U1,5,GPIO6/SDA*%
%TO.N,Net-(D1-DIN)*%
X103700000Y-30951200D03*
D14*
X102865000Y-30951200D03*
D13*
%TO.P,U1,6,GPIO7/SCL*%
%TO.N,unconnected-(U1-GPIO7{slash}SCL-Pad6)*%
X103700000Y-33491200D03*
D14*
X102865000Y-33491200D03*
D13*
%TO.P,U1,7,GPIO0/TX*%
%TO.N,unconnected-(U1-GPIO0{slash}TX-Pad7)*%
X103700000Y-36031200D03*
D14*
X102865000Y-36031200D03*
%TO.P,U1,8,GPIO1/RX*%
%TO.N,Net-(D20-K)*%
X87625000Y-36031200D03*
D15*
X86790000Y-36031200D03*
D14*
%TO.P,U1,9,GPIO2/SCK*%
%TO.N,Net-(D19-K)*%
X87625000Y-33491200D03*
D15*
X86790000Y-33491200D03*
D14*
%TO.P,U1,10,GPIO4/MISO*%
%TO.N,Net-(D18-K)*%
X87625000Y-30951200D03*
D15*
X86790000Y-30951200D03*
D14*
%TO.P,U1,11,GPIO3/MOSI*%
%TO.N,Net-(D17-K)*%
X87625000Y-28411200D03*
D15*
X86790000Y-28411200D03*
D14*
%TO.P,U1,12,3V3*%
%TO.N,unconnected-(U1-3V3-Pad12)*%
X87625000Y-25871200D03*
D15*
X86790000Y-25871200D03*
D14*
%TO.P,U1,13,GND*%
%TO.N,GND*%
X87625000Y-23331200D03*
D15*
X86790000Y-23331200D03*
D14*
%TO.P,U1,14,VBUS*%
%TO.N,+5V*%
X87625000Y-20791200D03*
D15*
X86790000Y-20791200D03*
%TD*%
D16*
%TO.P,D6,1,DOUT*%
%TO.N,Net-(D6-DOUT)*%
X54475000Y-54018700D03*
%TO.P,D6,2,VSS*%
%TO.N,GND*%
X54475000Y-55518700D03*
D17*
%TO.P,D6,3,DIN*%
%TO.N,Net-(D5-DOUT)*%
X59825000Y-55518700D03*
D16*
%TO.P,D6,4,VDD*%
%TO.N,+5V*%
X59825000Y-54018700D03*
%TD*%
D11*
%TO.P,D18,1,K*%
%TO.N,Net-(D18-K)*%
X67680000Y-79800000D03*
D12*
%TO.P,D18,2,A*%
%TO.N,Net-(D18-A)*%
X75300000Y-79800000D03*
%TD*%
D11*
%TO.P,D20,1,K*%
%TO.N,Net-(D20-K)*%
X29590000Y-79800000D03*
D12*
%TO.P,D20,2,A*%
%TO.N,Net-(D20-A)*%
X37210000Y-79800000D03*
%TD*%
D16*
%TO.P,D13,1,DOUT*%
%TO.N,Net-(D13-DOUT)*%
X35425000Y-92118700D03*
%TO.P,D13,2,VSS*%
%TO.N,GND*%
X35425000Y-93618700D03*
D17*
%TO.P,D13,3,DIN*%
%TO.N,Net-(D12-DOUT)*%
X40775000Y-93618700D03*
D16*
%TO.P,D13,4,VDD*%
%TO.N,+5V*%
X40775000Y-92118700D03*
%TD*%
%TO.P,D10,1,DOUT*%
%TO.N,Net-(D10-DOUT)*%
X54475000Y-73068700D03*
%TO.P,D10,2,VSS*%
%TO.N,GND*%
X54475000Y-74568700D03*
D17*
%TO.P,D10,3,DIN*%
%TO.N,Net-(D10-DIN)*%
X59825000Y-74568700D03*
D16*
%TO.P,D10,4,VDD*%
%TO.N,+5V*%
X59825000Y-73068700D03*
%TD*%
D11*
%TO.P,D24,1,K*%
%TO.N,Net-(D20-K)*%
X29600000Y-60700000D03*
D12*
%TO.P,D24,2,A*%
%TO.N,Net-(D24-A)*%
X37220000Y-60700000D03*
%TD*%
D16*
%TO.P,D9,1,DOUT*%
%TO.N,Net-(D10-DIN)*%
X35425000Y-73068700D03*
%TO.P,D9,2,VSS*%
%TO.N,GND*%
X35425000Y-74568700D03*
D17*
%TO.P,D9,3,DIN*%
%TO.N,Net-(D8-DOUT)*%
X40775000Y-74568700D03*
D16*
%TO.P,D9,4,VDD*%
%TO.N,+5V*%
X40775000Y-73068700D03*
%TD*%
%TO.P,D2,1,DOUT*%
%TO.N,Net-(D2-DOUT)*%
X54475000Y-34968700D03*
%TO.P,D2,2,VSS*%
%TO.N,GND*%
X54475000Y-36468700D03*
D17*
%TO.P,D2,3,DIN*%
%TO.N,Net-(D1-DOUT)*%
X59825000Y-36468700D03*
D16*
%TO.P,D2,4,VDD*%
%TO.N,+5V*%
X59825000Y-34968700D03*
%TD*%
%TO.P,D5,1,DOUT*%
%TO.N,Net-(D5-DOUT)*%
X35425000Y-54018700D03*
%TO.P,D5,2,VSS*%
%TO.N,GND*%
X35425000Y-55518700D03*
D17*
%TO.P,D5,3,DIN*%
%TO.N,Net-(D4-DOUT)*%
X40775000Y-55518700D03*
D16*
%TO.P,D5,4,VDD*%
%TO.N,+5V*%
X40775000Y-54018700D03*
%TD*%
%TO.P,D1,1,DOUT*%
%TO.N,Net-(D1-DOUT)*%
X35425000Y-34968700D03*
%TO.P,D1,2,VSS*%
%TO.N,GND*%
X35425000Y-36468700D03*
D17*
%TO.P,D1,3,DIN*%
%TO.N,Net-(D1-DIN)*%
X40775000Y-36468700D03*
D16*
%TO.P,D1,4,VDD*%
%TO.N,+5V*%
X40775000Y-34968700D03*
%TD*%
%TO.P,D4,1,DOUT*%
%TO.N,Net-(D4-DOUT)*%
X92575000Y-34968700D03*
%TO.P,D4,2,VSS*%
%TO.N,GND*%
X92575000Y-36468700D03*
D17*
%TO.P,D4,3,DIN*%
%TO.N,Net-(D3-DOUT)*%
X97925000Y-36468700D03*
D16*
%TO.P,D4,4,VDD*%
%TO.N,+5V*%
X97925000Y-34968700D03*
%TD*%
%TO.P,D11,1,DOUT*%
%TO.N,Net-(D11-DOUT)*%
X73525000Y-73068700D03*
%TO.P,D11,2,VSS*%
%TO.N,GND*%
X73525000Y-74568700D03*
D17*
%TO.P,D11,3,DIN*%
%TO.N,Net-(D10-DOUT)*%
X78875000Y-74568700D03*
D16*
%TO.P,D11,4,VDD*%
%TO.N,+5V*%
X78875000Y-73068700D03*
%TD*%
%TO.P,D7,1,DOUT*%
%TO.N,Net-(D7-DOUT)*%
X73525000Y-54018700D03*
%TO.P,D7,2,VSS*%
%TO.N,GND*%
X73525000Y-55518700D03*
D17*
%TO.P,D7,3,DIN*%
%TO.N,Net-(D6-DOUT)*%
X78875000Y-55518700D03*
D16*
%TO.P,D7,4,VDD*%
%TO.N,+5V*%
X78875000Y-54018700D03*
%TD*%
%TO.P,D3,1,DOUT*%
%TO.N,Net-(D3-DOUT)*%
X73525000Y-34968700D03*
%TO.P,D3,2,VSS*%
%TO.N,GND*%
X73525000Y-36468700D03*
D17*
%TO.P,D3,3,DIN*%
%TO.N,Net-(D2-DOUT)*%
X78875000Y-36468700D03*
D16*
%TO.P,D3,4,VDD*%
%TO.N,+5V*%
X78875000Y-34968700D03*
%TD*%
D11*
%TO.P,D30,1,K*%
%TO.N,Net-(D18-K)*%
X67690000Y-22600000D03*
D12*
%TO.P,D30,2,A*%
%TO.N,Net-(D30-A)*%
X75310000Y-22600000D03*
%TD*%
D16*
%TO.P,D14,1,DOUT*%
%TO.N,Net-(D14-DOUT)*%
X54475000Y-92118700D03*
%TO.P,D14,2,VSS*%
%TO.N,GND*%
X54475000Y-93618700D03*
D17*
%TO.P,D14,3,DIN*%
%TO.N,Net-(D13-DOUT)*%
X59825000Y-93618700D03*
D16*
%TO.P,D14,4,VDD*%
%TO.N,+5V*%
X59825000Y-92118700D03*
%TD*%
%TO.P,D8,1,DOUT*%
%TO.N,Net-(D8-DOUT)*%
X92575000Y-54018700D03*
%TO.P,D8,2,VSS*%
%TO.N,GND*%
X92575000Y-55518700D03*
D17*
%TO.P,D8,3,DIN*%
%TO.N,Net-(D7-DOUT)*%
X97925000Y-55518700D03*
D16*
%TO.P,D8,4,VDD*%
%TO.N,+5V*%
X97925000Y-54018700D03*
%TD*%
D11*
%TO.P,D25,1,K*%
%TO.N,Net-(D17-K)*%
X86690000Y-41700000D03*
D12*
%TO.P,D25,2,A*%
%TO.N,Net-(D25-A)*%
X94310000Y-41700000D03*
%TD*%
D16*
%TO.P,D16,1,DOUT*%
%TO.N,unconnected-(D16-DOUT-Pad1)*%
X92575000Y-92118700D03*
%TO.P,D16,2,VSS*%
%TO.N,GND*%
X92575000Y-93618700D03*
D17*
%TO.P,D16,3,DIN*%
%TO.N,Net-(D15-DOUT)*%
X97925000Y-93618700D03*
D16*
%TO.P,D16,4,VDD*%
%TO.N,+5V*%
X97925000Y-92118700D03*
%TD*%
D11*
%TO.P,D31,1,K*%
%TO.N,Net-(D19-K)*%
X48690000Y-22700000D03*
D12*
%TO.P,D31,2,A*%
%TO.N,Net-(D31-A)*%
X56310000Y-22700000D03*
%TD*%
D16*
%TO.P,D15,1,DOUT*%
%TO.N,Net-(D15-DOUT)*%
X73525000Y-92118700D03*
%TO.P,D15,2,VSS*%
%TO.N,GND*%
X73525000Y-93618700D03*
D17*
%TO.P,D15,3,DIN*%
%TO.N,Net-(D14-DOUT)*%
X78875000Y-93618700D03*
D16*
%TO.P,D15,4,VDD*%
%TO.N,+5V*%
X78875000Y-92118700D03*
%TD*%
D11*
%TO.P,D28,1,K*%
%TO.N,Net-(D20-K)*%
X29590000Y-41700000D03*
D12*
%TO.P,D28,2,A*%
%TO.N,Net-(D28-A)*%
X37210000Y-41700000D03*
%TD*%
D11*
%TO.P,D23,1,K*%
%TO.N,Net-(D19-K)*%
X48590000Y-60700000D03*
D12*
%TO.P,D23,2,A*%
%TO.N,Net-(D23-A)*%
X56210000Y-60700000D03*
%TD*%
D11*
%TO.P,D26,1,K*%
%TO.N,Net-(D18-K)*%
X67690000Y-41700000D03*
D12*
%TO.P,D26,2,A*%
%TO.N,Net-(D26-A)*%
X75310000Y-41700000D03*
%TD*%
D11*
%TO.P,D17,1,K*%
%TO.N,Net-(D17-K)*%
X86680000Y-79800000D03*
D12*
%TO.P,D17,2,A*%
%TO.N,Net-(D17-A)*%
X94300000Y-79800000D03*
%TD*%
D11*
%TO.P,D27,1,K*%
%TO.N,Net-(D19-K)*%
X48590000Y-41700000D03*
D12*
%TO.P,D27,2,A*%
%TO.N,Net-(D27-A)*%
X56210000Y-41700000D03*
%TD*%
D11*
%TO.P,D22,1,K*%
%TO.N,Net-(D18-K)*%
X67690000Y-60700000D03*
D12*
%TO.P,D22,2,A*%
%TO.N,Net-(D22-A)*%
X75310000Y-60700000D03*
%TD*%
D16*
%TO.P,D12,1,DOUT*%
%TO.N,Net-(D12-DOUT)*%
X92575000Y-73068700D03*
%TO.P,D12,2,VSS*%
%TO.N,GND*%
X92575000Y-74568700D03*
D17*
%TO.P,D12,3,DIN*%
%TO.N,Net-(D11-DOUT)*%
X97925000Y-74568700D03*
D16*
%TO.P,D12,4,VDD*%
%TO.N,+5V*%
X97925000Y-73068700D03*
%TD*%
D11*
%TO.P,D32,1,K*%
%TO.N,Net-(D20-K)*%
X29590000Y-22600000D03*
D12*
%TO.P,D32,2,A*%
%TO.N,Net-(D32-A)*%
X37210000Y-22600000D03*
%TD*%
D18*
%TO.N,+5V*%
X54035000Y-88766400D03*
X42950700Y-90221300D03*
%TO.N,GND*%
X69682000Y-60059500D03*
X58853600Y-60059500D03*
%TO.N,Net-(D1-DIN)*%
X42696400Y-36683500D03*
%TO.N,Net-(D1-DOUT)*%
X58853600Y-40401200D03*
X31035400Y-40948200D03*
%TO.N,Net-(D2-DOUT)*%
X73582300Y-40585900D03*
X50883700Y-38566200D03*
%TO.N,Net-(D3-DOUT)*%
X70085900Y-38474800D03*
X97726200Y-39452800D03*
%TO.N,Net-(D4-DOUT)*%
X82619100Y-55544300D03*
X41364400Y-57197700D03*
%TO.N,Net-(D5-DOUT)*%
X34092900Y-54065400D03*
X59958500Y-56733300D03*
%TO.N,Net-(D6-DOUT)*%
X78364300Y-58471100D03*
X54475000Y-52379700D03*
%TO.N,Net-(D7-DOUT)*%
X98017700Y-56733300D03*
X74021300Y-52211000D03*
%TO.N,Net-(D8-DOUT)*%
X90726000Y-52328800D03*
X46609500Y-47572700D03*
%TO.N,Net-(D10-DIN)*%
X59958500Y-76222800D03*
X40409100Y-71982400D03*
%TO.N,Net-(D10-DOUT)*%
X59303700Y-71261000D03*
X79363100Y-76222800D03*
%TO.N,Net-(D11-DOUT)*%
X78353700Y-71261000D03*
X97720400Y-76392400D03*
%TO.N,Net-(D12-DOUT)*%
X90221700Y-73962000D03*
X41531000Y-80758700D03*
%TO.N,Net-(D13-DOUT)*%
X58704300Y-95881900D03*
X41240800Y-90567700D03*
%TO.N,Net-(D14-DOUT)*%
X53458500Y-91102200D03*
X80250600Y-92926400D03*
%TO.N,Net-(D15-DOUT)*%
X78357700Y-90439500D03*
X98852600Y-95712300D03*
%TO.N,Net-(U1-GPIO26{slash}ADC0{slash}A0)*%
X75782700Y-27682300D03*
%TD*%
D19*
%TO.N,+5V*%
X78875000Y-73068700D02*
X79926700Y-73068700D01*
X61168000Y-54310000D02*
X61168000Y-66966200D01*
X82706700Y-32188700D02*
X79926700Y-34968700D01*
X78875000Y-54018700D02*
X79926700Y-54018700D01*
X97925000Y-54018700D02*
X98976700Y-54018700D01*
X60876700Y-90230800D02*
X60745100Y-90099200D01*
X87625000Y-20791200D02*
X88779000Y-20791200D01*
X42950700Y-90221200D02*
X42950700Y-90221300D01*
X99010300Y-54052300D02*
X99010300Y-59665600D01*
X79926700Y-72516200D02*
X79795200Y-72384700D01*
X60876700Y-72332000D02*
X60876700Y-73068700D01*
X80207100Y-45999100D02*
X79795100Y-46411100D01*
X79926700Y-53282000D02*
X79926700Y-54018700D01*
X60876700Y-34968700D02*
X64840300Y-31005100D01*
X88779000Y-20791200D02*
X97925000Y-29937200D01*
X60745100Y-87027300D02*
X61156500Y-86615900D01*
X68490500Y-21464200D02*
X69693300Y-22667000D01*
X40775000Y-54018700D02*
X41300900Y-54018700D01*
X42091100Y-68069200D02*
X42091100Y-54024300D01*
X41053300Y-92118700D02*
X40775000Y-92118700D01*
X41826700Y-72499300D02*
X41690300Y-72362900D01*
X49478800Y-21549200D02*
X47874400Y-21549200D01*
X96351700Y-84206000D02*
X97925000Y-85779300D01*
X96360700Y-46115000D02*
X97925000Y-47679300D01*
X41690300Y-68470000D02*
X42091100Y-68069200D01*
X50156600Y-31119700D02*
X50156600Y-22227000D01*
X79795100Y-53150400D02*
X79926700Y-53282000D01*
X60350900Y-92118700D02*
X59049200Y-90817000D01*
X96351700Y-65156000D02*
X97925000Y-66729300D01*
X71876300Y-33738200D02*
X78029100Y-33738200D01*
X64840300Y-31005100D02*
X64840300Y-23454800D01*
X98976700Y-73068700D02*
X98996300Y-73088300D01*
X59825000Y-34968700D02*
X60350900Y-34968700D01*
X42093100Y-34968700D02*
X41826700Y-34968700D01*
X42950700Y-90221300D02*
X41053300Y-92118700D01*
X60748400Y-46726900D02*
X61171700Y-46303600D01*
X45546300Y-23877300D02*
X45546300Y-31515500D01*
X97925000Y-34160100D02*
X97925000Y-34786000D01*
X82706700Y-24329200D02*
X82706700Y-32188700D01*
X52908600Y-33871700D02*
X50156600Y-31119700D01*
X99007900Y-35868900D02*
X99007900Y-41349200D01*
X86790000Y-20791200D02*
X86244700Y-20791200D01*
X97925000Y-47679300D02*
X97925000Y-54018700D01*
X97925000Y-66729300D02*
X97925000Y-73068700D01*
X61156500Y-86615900D02*
X61156500Y-73348500D01*
X40775000Y-73068700D02*
X41826700Y-73068700D01*
X97925000Y-73068700D02*
X98976700Y-73068700D01*
X42950700Y-90221300D02*
X42950700Y-90221200D01*
X60876700Y-92118700D02*
X60876700Y-90230800D01*
X96351700Y-62324200D02*
X96351700Y-65156000D01*
X78029100Y-33738200D02*
X78875000Y-34584100D01*
X50156600Y-22227000D02*
X49478800Y-21549200D01*
X86790000Y-20791200D02*
X87625000Y-20791200D01*
X96351700Y-81374200D02*
X96351700Y-84206000D01*
X61156500Y-73348500D02*
X60876700Y-73068700D01*
X80207100Y-35249100D02*
X80207100Y-45999100D01*
X40775000Y-34968700D02*
X41826700Y-34968700D01*
X97925000Y-34786000D02*
X99007900Y-35868900D01*
X41690300Y-72362900D02*
X41690300Y-68470000D01*
X61171700Y-46303600D02*
X61171700Y-35263700D01*
X98996300Y-78729600D02*
X96351700Y-81374200D01*
X56085600Y-90817000D02*
X54035000Y-88766400D01*
X44609100Y-51495100D02*
X44609100Y-37484700D01*
X47874400Y-21549200D02*
X45546300Y-23877300D01*
X82724500Y-75866500D02*
X82724500Y-89320900D01*
X60745100Y-67389100D02*
X60745100Y-72200400D01*
X42091100Y-54024300D02*
X42085500Y-54018700D01*
X41300900Y-54018700D02*
X42085500Y-54018700D01*
X79795200Y-72384700D02*
X79795200Y-65670100D01*
X60350900Y-34968700D02*
X59253900Y-33871700D01*
X59825000Y-54018700D02*
X60876700Y-54018700D01*
X79926700Y-34968700D02*
X80207100Y-35249100D01*
X61168000Y-66966200D02*
X60745100Y-67389100D01*
X78875000Y-34968700D02*
X79926700Y-34968700D01*
X96360700Y-43996400D02*
X96360700Y-46115000D01*
X59049200Y-90817000D02*
X56085600Y-90817000D01*
X59825000Y-73068700D02*
X60876700Y-73068700D01*
X60748400Y-53268100D02*
X60748400Y-46726900D01*
X79795200Y-65670100D02*
X80222700Y-65242600D01*
X60350900Y-34968700D02*
X60876700Y-34968700D01*
X66830900Y-21464200D02*
X68490500Y-21464200D01*
X97925000Y-34160100D02*
X97925000Y-34968700D01*
X45546300Y-31515500D02*
X42093100Y-34968700D01*
X97925000Y-85779300D02*
X97925000Y-92118700D01*
X64840300Y-23454800D02*
X66830900Y-21464200D01*
X60876700Y-54018700D02*
X61168000Y-54310000D01*
X97925000Y-29937200D02*
X97925000Y-34160100D01*
X60876700Y-54018700D02*
X60876700Y-53396400D01*
X41826700Y-73068700D02*
X41826700Y-72499300D01*
X82724500Y-89320900D02*
X79926700Y-92118700D01*
X59825000Y-92118700D02*
X60350900Y-92118700D01*
X99010300Y-59665600D02*
X96351700Y-62324200D01*
X61171700Y-35263700D02*
X60876700Y-34968700D01*
X60745100Y-90099200D02*
X60745100Y-87027300D01*
X60745100Y-72200400D02*
X60876700Y-72332000D01*
X79795100Y-46411100D02*
X79795100Y-53150400D01*
X98996300Y-73088300D02*
X98996300Y-78729600D01*
X60350900Y-92118700D02*
X60876700Y-92118700D01*
X80222700Y-54314700D02*
X79926700Y-54018700D01*
X60876700Y-53396400D02*
X60748400Y-53268100D01*
X78875000Y-92118700D02*
X79926700Y-92118700D01*
X69693300Y-22667000D02*
X69693300Y-31555200D01*
X79926700Y-73068700D02*
X79926700Y-72516200D01*
X44609100Y-37484700D02*
X42093100Y-34968700D01*
X69693300Y-31555200D02*
X71876300Y-33738200D01*
X80222700Y-65242600D02*
X80222700Y-54314700D01*
X99007900Y-41349200D02*
X96360700Y-43996400D01*
X42085500Y-54018700D02*
X44609100Y-51495100D01*
X59253900Y-33871700D02*
X52908600Y-33871700D01*
X79926700Y-73068700D02*
X82724500Y-75866500D01*
X86244700Y-20791200D02*
X82706700Y-24329200D01*
X78875000Y-34584100D02*
X78875000Y-34968700D01*
X98976700Y-54018700D02*
X99010300Y-54052300D01*
%TO.N,GND*%
X31557500Y-90802900D02*
X31557500Y-74568700D01*
X84865800Y-94716200D02*
X88743300Y-90838700D01*
X88743300Y-90838700D02*
X88743300Y-74688700D01*
X88728600Y-24434800D02*
X88728600Y-33674000D01*
X34899200Y-93618700D02*
X35975900Y-94695400D01*
X69682000Y-58835900D02*
X69682000Y-60059500D01*
X88743300Y-74688700D02*
X91403300Y-74688700D01*
X92575000Y-36468700D02*
X91523300Y-36468700D01*
X50610600Y-39867000D02*
X53423300Y-37054300D01*
X73525000Y-55518700D02*
X72999200Y-55518700D01*
X50610600Y-55518700D02*
X50610600Y-39867000D01*
X54475000Y-55518700D02*
X53423300Y-55518700D01*
X35425000Y-36468700D02*
X34373300Y-36468700D01*
X50610600Y-55518700D02*
X53423300Y-55518700D01*
X50606800Y-77385200D02*
X50606800Y-90802200D01*
X54475000Y-55866400D02*
X58668100Y-60059500D01*
X72473300Y-55518700D02*
X69654200Y-52699600D01*
X54475000Y-36468700D02*
X53423300Y-36468700D01*
X88743300Y-55518700D02*
X88743300Y-39248700D01*
X69664700Y-77377300D02*
X69664700Y-90284200D01*
X69664700Y-90284200D02*
X72999200Y-93618700D01*
X72999200Y-55518700D02*
X72473300Y-55518700D01*
X34373300Y-38638000D02*
X34373300Y-36468700D01*
X31557500Y-74568700D02*
X34373300Y-74568700D01*
X87625000Y-23331200D02*
X88728600Y-24434800D01*
X73525000Y-93618700D02*
X72999200Y-93618700D01*
X31547100Y-52692500D02*
X31547100Y-41464200D01*
X88728600Y-33674000D02*
X91523300Y-36468700D01*
X31557500Y-58334500D02*
X34373300Y-55518700D01*
X53423300Y-74568700D02*
X50606800Y-77385200D01*
X35425000Y-93618700D02*
X34899200Y-93618700D01*
X35975900Y-94695400D02*
X46713600Y-94695400D01*
X58668100Y-60059500D02*
X58853600Y-60059500D01*
X34899200Y-93618700D02*
X34373300Y-93618700D01*
X88743300Y-90838700D02*
X91523300Y-93618700D01*
X54475000Y-93618700D02*
X53423300Y-93618700D01*
X54475000Y-74568700D02*
X53423300Y-74568700D01*
X92575000Y-55518700D02*
X91523300Y-55518700D01*
X34373300Y-55518700D02*
X31547100Y-52692500D01*
X46713600Y-94695400D02*
X50606800Y-90802200D01*
X54475000Y-55518700D02*
X54475000Y-55866400D01*
X35425000Y-55518700D02*
X34373300Y-55518700D01*
X86790000Y-23331200D02*
X87625000Y-23331200D01*
X74096700Y-94716200D02*
X84865800Y-94716200D01*
X69682000Y-60059500D02*
X69682000Y-71777400D01*
X69682000Y-71777400D02*
X72473300Y-74568700D01*
X91403300Y-74688700D02*
X91523300Y-74568700D01*
X31557500Y-74568700D02*
X31557500Y-58334500D01*
X92575000Y-93618700D02*
X91523300Y-93618700D01*
X72473300Y-74568700D02*
X69664700Y-77377300D01*
X91523300Y-55518700D02*
X88743300Y-55518700D01*
X50610600Y-71756000D02*
X53423300Y-74568700D01*
X88743300Y-74688700D02*
X88743300Y-55518700D01*
X73525000Y-36468700D02*
X72473300Y-36468700D01*
X88743300Y-39248700D02*
X91523300Y-36468700D01*
X31547100Y-41464200D02*
X34373300Y-38638000D01*
X69654200Y-52699600D02*
X69654200Y-39934200D01*
X92575000Y-74568700D02*
X91523300Y-74568700D01*
X53423300Y-37054300D02*
X53423300Y-36468700D01*
X72999200Y-55518700D02*
X69682000Y-58835900D01*
X72999200Y-93618700D02*
X74096700Y-94716200D01*
X50606800Y-90802200D02*
X53423300Y-93618700D01*
X72473300Y-37115100D02*
X72473300Y-36468700D01*
X73525000Y-74568700D02*
X72473300Y-74568700D01*
X35425000Y-74568700D02*
X34373300Y-74568700D01*
X34373300Y-93618700D02*
X31557500Y-90802900D01*
X50610600Y-55518700D02*
X50610600Y-71756000D01*
X69654200Y-39934200D02*
X72473300Y-37115100D01*
%TO.N,Net-(D1-DIN)*%
X103700000Y-30951200D02*
X102865000Y-30951200D01*
X42696400Y-36683500D02*
X40989800Y-36683500D01*
X40989800Y-36683500D02*
X40775000Y-36468700D01*
%TO.N,Net-(D1-DOUT)*%
X31035400Y-38306600D02*
X31035400Y-40948200D01*
X59825000Y-39429800D02*
X59825000Y-36468700D01*
X58853600Y-40401200D02*
X59825000Y-39429800D01*
X35425000Y-34968700D02*
X34373300Y-34968700D01*
X34373300Y-34968700D02*
X31035400Y-38306600D01*
%TO.N,Net-(D2-DOUT)*%
X76622800Y-37545400D02*
X73582300Y-40585900D01*
X50883700Y-37508300D02*
X53423300Y-34968700D01*
X54475000Y-34968700D02*
X53423300Y-34968700D01*
X78201500Y-37545400D02*
X76622800Y-37545400D01*
X50883700Y-38566200D02*
X50883700Y-37508300D01*
X78875000Y-36871900D02*
X78201500Y-37545400D01*
X78875000Y-36468700D02*
X78875000Y-36871900D01*
%TO.N,Net-(D3-DOUT)*%
X97925000Y-39254000D02*
X97726200Y-39452800D01*
X70085900Y-37356100D02*
X72473300Y-34968700D01*
X97925000Y-36468700D02*
X97925000Y-39254000D01*
X70085900Y-38474800D02*
X70085900Y-37356100D01*
X73525000Y-34968700D02*
X72473300Y-34968700D01*
%TO.N,Net-(D4-DOUT)*%
X83317400Y-24422900D02*
X85503900Y-22236400D01*
X40775000Y-55518700D02*
X41364300Y-56108000D01*
X92866700Y-29538100D02*
X92575000Y-29829800D01*
X92866700Y-27004300D02*
X92866700Y-29538100D01*
X92575000Y-29829800D02*
X92575000Y-34968700D01*
X85503900Y-22236400D02*
X88098800Y-22236400D01*
X41364400Y-56108000D02*
X41364400Y-57197700D01*
X82619100Y-55544300D02*
X83317400Y-54846000D01*
X41364300Y-56108000D02*
X41364400Y-56108000D01*
X83317400Y-54846000D02*
X83317400Y-24422900D01*
X88098800Y-22236400D02*
X92866700Y-27004300D01*
%TO.N,Net-(D5-DOUT)*%
X34092900Y-54065400D02*
X34326600Y-54065400D01*
X59958500Y-56733300D02*
X59825000Y-56599800D01*
X35425000Y-54018700D02*
X34373300Y-54018700D01*
X59825000Y-56599800D02*
X59825000Y-55518700D01*
X34326600Y-54065400D02*
X34373300Y-54018700D01*
%TO.N,Net-(D6-DOUT)*%
X54475000Y-54018700D02*
X53423300Y-54018700D01*
X54475000Y-52379700D02*
X53423300Y-53431400D01*
X78875000Y-55518700D02*
X78875000Y-57960400D01*
X53423300Y-53431400D02*
X53423300Y-54018700D01*
X78875000Y-57960400D02*
X78364300Y-58471100D01*
%TO.N,Net-(D7-DOUT)*%
X74021300Y-52211000D02*
X73525000Y-52707300D01*
X97925000Y-56640600D02*
X97925000Y-55518700D01*
X98017700Y-56733300D02*
X97925000Y-56640600D01*
X73525000Y-52707300D02*
X73525000Y-54018700D01*
%TO.N,Net-(D8-DOUT)*%
X46609500Y-69012700D02*
X46609500Y-47572700D01*
X40775000Y-74568700D02*
X41053500Y-74568700D01*
X41053500Y-74568700D02*
X46609500Y-69012700D01*
X92049200Y-54018700D02*
X90726000Y-52695500D01*
X90726000Y-52695500D02*
X90726000Y-52328800D01*
X92575000Y-54018700D02*
X92049200Y-54018700D01*
%TO.N,Net-(D10-DIN)*%
X36111100Y-71982400D02*
X40409100Y-71982400D01*
X59825000Y-76089300D02*
X59825000Y-74568700D01*
X59958500Y-76222800D02*
X59825000Y-76089300D01*
X35425000Y-73068700D02*
X35425000Y-72668500D01*
X35425000Y-72668500D02*
X36111100Y-71982400D01*
%TO.N,Net-(D10-DOUT)*%
X78875000Y-75734700D02*
X78875000Y-74568700D01*
X58572700Y-71992000D02*
X59303700Y-71261000D01*
X54475000Y-73068700D02*
X54475000Y-72652200D01*
X55135200Y-71992000D02*
X58572700Y-71992000D01*
X79363100Y-76222800D02*
X78875000Y-75734700D01*
X54475000Y-72652200D02*
X55135200Y-71992000D01*
%TO.N,Net-(D11-DOUT)*%
X97925000Y-76187800D02*
X97925000Y-74568700D01*
X97720400Y-76392400D02*
X97925000Y-76187800D01*
X74198500Y-71992000D02*
X77622700Y-71992000D01*
X73525000Y-72665500D02*
X74198500Y-71992000D01*
X77622700Y-71992000D02*
X78353700Y-71261000D01*
X73525000Y-73068700D02*
X73525000Y-72665500D01*
%TO.N,Net-(D12-DOUT)*%
X92575000Y-73068700D02*
X91115000Y-73068700D01*
X40775000Y-93618700D02*
X40877700Y-93618700D01*
X91115000Y-73068700D02*
X90221700Y-73962000D01*
X44629600Y-89866800D02*
X44629600Y-83857300D01*
X40877700Y-93618700D02*
X44629600Y-89866800D01*
X44629600Y-83857300D02*
X41531000Y-80758700D01*
%TO.N,Net-(D13-DOUT)*%
X36098500Y-91042000D02*
X40766500Y-91042000D01*
X35425000Y-92118700D02*
X35425000Y-91715500D01*
X35425000Y-91715500D02*
X36098500Y-91042000D01*
X40766500Y-91042000D02*
X41240800Y-90567700D01*
X58704300Y-95881900D02*
X59825000Y-94761200D01*
X59825000Y-94761200D02*
X59825000Y-93618700D01*
%TO.N,Net-(D14-DOUT)*%
X53458500Y-91102200D02*
X53423300Y-91137400D01*
X53423300Y-91137400D02*
X53423300Y-92118700D01*
X80250600Y-92926400D02*
X80079800Y-92926400D01*
X79567300Y-92926400D02*
X78875000Y-93618700D01*
X54475000Y-92118700D02*
X53423300Y-92118700D01*
X53458500Y-91102200D02*
X53458500Y-90997400D01*
X80250600Y-92926400D02*
X79567300Y-92926400D01*
X53458500Y-90997400D02*
X53458500Y-91102200D01*
X80079800Y-92926400D02*
X80250600Y-92926400D01*
%TO.N,Net-(D15-DOUT)*%
X73525000Y-91715500D02*
X74198500Y-91042000D01*
X73525000Y-92118700D02*
X73525000Y-91715500D01*
X97925000Y-94784700D02*
X97925000Y-93618700D01*
X74198500Y-91042000D02*
X77755200Y-91042000D01*
X77755200Y-91042000D02*
X78357700Y-90439500D01*
X98852600Y-95712300D02*
X97925000Y-94784700D01*
%TO.N,Net-(D17-K)*%
X85229500Y-40239500D02*
X86690000Y-41700000D01*
X86680000Y-60700000D02*
X86680000Y-41710000D01*
X86680000Y-41710000D02*
X86690000Y-41700000D01*
X86790000Y-28411200D02*
X87625000Y-28411200D01*
X85229500Y-29971700D02*
X85229500Y-40239500D01*
X86680000Y-79800000D02*
X86680000Y-60700000D01*
X86790000Y-28411200D02*
X85229500Y-29971700D01*
%TO.N,Net-(D17-A)*%
X94300000Y-79800000D02*
X94300000Y-82706200D01*
X94300000Y-82706200D02*
X91440000Y-85566200D01*
%TO.N,Net-(D18-K)*%
X67680000Y-79800000D02*
X67690000Y-79790000D01*
X67690000Y-79790000D02*
X67690000Y-60700000D01*
X87625000Y-30951200D02*
X86790000Y-30951200D01*
X67690000Y-60700000D02*
X67690000Y-41700000D01*
X67690000Y-22600000D02*
X67690000Y-41700000D01*
%TO.N,Net-(D18-A)*%
X75300000Y-82656200D02*
X75300000Y-79800000D01*
X72390000Y-85566200D02*
X75300000Y-82656200D01*
%TO.N,Net-(D19-A)*%
X56310000Y-82596200D02*
X56310000Y-79800000D01*
X53340000Y-85566200D02*
X56310000Y-82596200D01*
%TO.N,Net-(D19-K)*%
X48590000Y-60700000D02*
X48590000Y-41700000D01*
X48590000Y-41700000D02*
X48590000Y-22800000D01*
X48690000Y-79800000D02*
X48590000Y-79700000D01*
X48590000Y-79700000D02*
X48590000Y-60700000D01*
X48590000Y-22800000D02*
X48690000Y-22700000D01*
X87625000Y-33491200D02*
X86790000Y-33491200D01*
%TO.N,Net-(D20-K)*%
X29590000Y-22600000D02*
X29590000Y-41700000D01*
X87625000Y-36031200D02*
X86790000Y-36031200D01*
X29600000Y-79790000D02*
X29600000Y-60700000D01*
X29590000Y-79800000D02*
X29600000Y-79790000D01*
X29600000Y-60700000D02*
X29600000Y-41710000D01*
X29600000Y-41710000D02*
X29590000Y-41700000D01*
%TO.N,Net-(D20-A)*%
X37210000Y-82646200D02*
X37210000Y-79800000D01*
X34290000Y-85566200D02*
X37210000Y-82646200D01*
%TO.N,Net-(D21-A)*%
X94300000Y-63656200D02*
X91440000Y-66516200D01*
X94300000Y-60700000D02*
X94300000Y-63656200D01*
%TO.N,Net-(D22-A)*%
X75310000Y-63596200D02*
X72390000Y-66516200D01*
X75310000Y-60700000D02*
X75310000Y-63596200D01*
%TO.N,Net-(D23-A)*%
X53340000Y-66516200D02*
X56210000Y-63646200D01*
X56210000Y-63646200D02*
X56210000Y-60700000D01*
%TO.N,Net-(D24-A)*%
X37220000Y-60700000D02*
X34290000Y-63630000D01*
X34290000Y-63630000D02*
X34290000Y-66516200D01*
%TO.N,Net-(D25-A)*%
X91440000Y-47466200D02*
X91440000Y-44570000D01*
X91440000Y-44570000D02*
X94310000Y-41700000D01*
%TO.N,Net-(D26-A)*%
X75310000Y-41700000D02*
X75310000Y-44546200D01*
X75310000Y-44546200D02*
X72390000Y-47466200D01*
%TO.N,Net-(D27-A)*%
X56210000Y-41700000D02*
X53340000Y-44570000D01*
X53340000Y-44570000D02*
X53340000Y-47466200D01*
%TO.N,Net-(D28-A)*%
X37210000Y-44546200D02*
X37210000Y-41700000D01*
X34290000Y-47466200D02*
X37210000Y-44546200D01*
%TO.N,Net-(D30-A)*%
X75310000Y-22600000D02*
X75310000Y-25496200D01*
X75310000Y-25496200D02*
X72390000Y-28416200D01*
%TO.N,Net-(D31-A)*%
X56310000Y-25446200D02*
X53340000Y-28416200D01*
X56310000Y-22700000D02*
X56310000Y-25446200D01*
%TO.N,Net-(D32-A)*%
X37210000Y-22600000D02*
X37210000Y-25496200D01*
X37210000Y-25496200D02*
X34290000Y-28416200D01*
%TO.N,Net-(U1-GPIO26{slash}ADC0{slash}A0)*%
X76933900Y-27682300D02*
X78740000Y-25876200D01*
X97790000Y-25876200D02*
X102865000Y-20801200D01*
X102865000Y-20801200D02*
X102865000Y-20791200D01*
X75782700Y-27682300D02*
X76933900Y-27682300D01*
X103700000Y-20791200D02*
X102865000Y-20791200D01*
%TO.N,Net-(U1-GPIO27{slash}ADC1{slash}A1)*%
X98851800Y-27344400D02*
X102865000Y-23331200D01*
X103700000Y-23331200D02*
X102865000Y-23331200D01*
X99491700Y-43224500D02*
X99491700Y-33874200D01*
X99491700Y-33874200D02*
X98851800Y-33234300D01*
X98851800Y-33234300D02*
X98851800Y-27344400D01*
X97790000Y-44926200D02*
X99491700Y-43224500D01*
%TO.N,Net-(U1-GPIO28{slash}ADC2{slash}A2)*%
X101943800Y-45682600D02*
X101758200Y-45497000D01*
X101758200Y-45497000D02*
X101758200Y-26978000D01*
X103700000Y-25871200D02*
X102865000Y-25871200D01*
X97790000Y-63976200D02*
X101943800Y-59822400D01*
X101758200Y-26978000D02*
X102865000Y-25871200D01*
X101943800Y-59822400D02*
X101943800Y-45682600D01*
X101943800Y-45682600D02*
X101758200Y-45497000D01*
%TO.N,Net-(U1-GPIO29{slash}ADC3{slash}A3)*%
X103700000Y-28411200D02*
X105252300Y-29963500D01*
X103700000Y-28411200D02*
X102865000Y-28411200D01*
X105252300Y-29963500D02*
X105252300Y-75563900D01*
X105252300Y-75563900D02*
X97790000Y-83026200D01*
%TO.N,unconnected-(U1-GPIO0{slash}TX-Pad7)*%
X102865000Y-36031200D02*
X103700000Y-36031200D01*
%TO.N,unconnected-(U1-3V3-Pad12)*%
X86790000Y-25871200D02*
X87625000Y-25871200D01*
%TO.N,unconnected-(U1-GPIO7{slash}SCL-Pad6)*%
X103700000Y-33491200D02*
X102865000Y-33491200D01*
%TD*%
M02*
