%TF.GenerationSoftware,KiCad,Pcbnew,9.0.2*%
%TF.CreationDate,2025-06-30T11:30:22+02:00*%
%TF.ProjectId,HackPad,4861636b-5061-4642-9e6b-696361645f70,rev?*%
%TF.SameCoordinates,Original*%
%TF.FileFunction,Legend,Top*%
%TF.FilePolarity,Positive*%
%FSLAX46Y46*%
G04 Gerber Fmt 4.6, Leading zero omitted, Abs format (unit mm)*
G04 Created by KiCad (PCBNEW 9.0.2) date 2025-06-30 11:30:22*
%MOMM*%
%LPD*%
G01*
G04 APERTURE LIST*
%ADD10C,0.150000*%
%ADD11C,0.120000*%
G04 APERTURE END LIST*
D10*
X29322493Y-18769819D02*
X29322493Y-19484104D01*
X29322493Y-19484104D02*
X29274874Y-19626961D01*
X29274874Y-19626961D02*
X29179636Y-19722200D01*
X29179636Y-19722200D02*
X29036779Y-19769819D01*
X29036779Y-19769819D02*
X28941541Y-19769819D01*
X29941541Y-19769819D02*
X29846303Y-19722200D01*
X29846303Y-19722200D02*
X29798684Y-19674580D01*
X29798684Y-19674580D02*
X29751065Y-19579342D01*
X29751065Y-19579342D02*
X29751065Y-19293628D01*
X29751065Y-19293628D02*
X29798684Y-19198390D01*
X29798684Y-19198390D02*
X29846303Y-19150771D01*
X29846303Y-19150771D02*
X29941541Y-19103152D01*
X29941541Y-19103152D02*
X30084398Y-19103152D01*
X30084398Y-19103152D02*
X30179636Y-19150771D01*
X30179636Y-19150771D02*
X30227255Y-19198390D01*
X30227255Y-19198390D02*
X30274874Y-19293628D01*
X30274874Y-19293628D02*
X30274874Y-19579342D01*
X30274874Y-19579342D02*
X30227255Y-19674580D01*
X30227255Y-19674580D02*
X30179636Y-19722200D01*
X30179636Y-19722200D02*
X30084398Y-19769819D01*
X30084398Y-19769819D02*
X29941541Y-19769819D01*
X30846303Y-19769819D02*
X30751065Y-19722200D01*
X30751065Y-19722200D02*
X30703446Y-19626961D01*
X30703446Y-19626961D02*
X30703446Y-18769819D01*
X31370113Y-19769819D02*
X31274875Y-19722200D01*
X31274875Y-19722200D02*
X31227256Y-19674580D01*
X31227256Y-19674580D02*
X31179637Y-19579342D01*
X31179637Y-19579342D02*
X31179637Y-19293628D01*
X31179637Y-19293628D02*
X31227256Y-19198390D01*
X31227256Y-19198390D02*
X31274875Y-19150771D01*
X31274875Y-19150771D02*
X31370113Y-19103152D01*
X31370113Y-19103152D02*
X31512970Y-19103152D01*
X31512970Y-19103152D02*
X31608208Y-19150771D01*
X31608208Y-19150771D02*
X31655827Y-19198390D01*
X31655827Y-19198390D02*
X31703446Y-19293628D01*
X31703446Y-19293628D02*
X31703446Y-19579342D01*
X31703446Y-19579342D02*
X31655827Y-19674580D01*
X31655827Y-19674580D02*
X31608208Y-19722200D01*
X31608208Y-19722200D02*
X31512970Y-19769819D01*
X31512970Y-19769819D02*
X31370113Y-19769819D01*
X32132018Y-19769819D02*
X32132018Y-19103152D01*
X32132018Y-19198390D02*
X32179637Y-19150771D01*
X32179637Y-19150771D02*
X32274875Y-19103152D01*
X32274875Y-19103152D02*
X32417732Y-19103152D01*
X32417732Y-19103152D02*
X32512970Y-19150771D01*
X32512970Y-19150771D02*
X32560589Y-19246009D01*
X32560589Y-19246009D02*
X32560589Y-19769819D01*
X32560589Y-19246009D02*
X32608208Y-19150771D01*
X32608208Y-19150771D02*
X32703446Y-19103152D01*
X32703446Y-19103152D02*
X32846303Y-19103152D01*
X32846303Y-19103152D02*
X32941542Y-19150771D01*
X32941542Y-19150771D02*
X32989161Y-19246009D01*
X32989161Y-19246009D02*
X32989161Y-19769819D01*
X33608208Y-19769819D02*
X33512970Y-19722200D01*
X33512970Y-19722200D02*
X33465351Y-19674580D01*
X33465351Y-19674580D02*
X33417732Y-19579342D01*
X33417732Y-19579342D02*
X33417732Y-19293628D01*
X33417732Y-19293628D02*
X33465351Y-19198390D01*
X33465351Y-19198390D02*
X33512970Y-19150771D01*
X33512970Y-19150771D02*
X33608208Y-19103152D01*
X33608208Y-19103152D02*
X33751065Y-19103152D01*
X33751065Y-19103152D02*
X33846303Y-19150771D01*
X33846303Y-19150771D02*
X33893922Y-19198390D01*
X33893922Y-19198390D02*
X33941541Y-19293628D01*
X33941541Y-19293628D02*
X33941541Y-19579342D01*
X33941541Y-19579342D02*
X33893922Y-19674580D01*
X33893922Y-19674580D02*
X33846303Y-19722200D01*
X33846303Y-19722200D02*
X33751065Y-19769819D01*
X33751065Y-19769819D02*
X33608208Y-19769819D01*
X34512970Y-19769819D02*
X34417732Y-19722200D01*
X34417732Y-19722200D02*
X34370113Y-19626961D01*
X34370113Y-19626961D02*
X34370113Y-18769819D01*
X35036780Y-19769819D02*
X34941542Y-19722200D01*
X34941542Y-19722200D02*
X34893923Y-19674580D01*
X34893923Y-19674580D02*
X34846304Y-19579342D01*
X34846304Y-19579342D02*
X34846304Y-19293628D01*
X34846304Y-19293628D02*
X34893923Y-19198390D01*
X34893923Y-19198390D02*
X34941542Y-19150771D01*
X34941542Y-19150771D02*
X35036780Y-19103152D01*
X35036780Y-19103152D02*
X35179637Y-19103152D01*
X35179637Y-19103152D02*
X35274875Y-19150771D01*
X35274875Y-19150771D02*
X35322494Y-19198390D01*
X35322494Y-19198390D02*
X35370113Y-19293628D01*
X35370113Y-19293628D02*
X35370113Y-19579342D01*
X35370113Y-19579342D02*
X35322494Y-19674580D01*
X35322494Y-19674580D02*
X35274875Y-19722200D01*
X35274875Y-19722200D02*
X35179637Y-19769819D01*
X35179637Y-19769819D02*
X35036780Y-19769819D01*
X35798685Y-19769819D02*
X35798685Y-18769819D01*
X35893923Y-19388866D02*
X36179637Y-19769819D01*
X36179637Y-19103152D02*
X35798685Y-19484104D01*
X36751066Y-19769819D02*
X36655828Y-19722200D01*
X36655828Y-19722200D02*
X36608209Y-19674580D01*
X36608209Y-19674580D02*
X36560590Y-19579342D01*
X36560590Y-19579342D02*
X36560590Y-19293628D01*
X36560590Y-19293628D02*
X36608209Y-19198390D01*
X36608209Y-19198390D02*
X36655828Y-19150771D01*
X36655828Y-19150771D02*
X36751066Y-19103152D01*
X36751066Y-19103152D02*
X36893923Y-19103152D01*
X36893923Y-19103152D02*
X36989161Y-19150771D01*
X36989161Y-19150771D02*
X37036780Y-19198390D01*
X37036780Y-19198390D02*
X37084399Y-19293628D01*
X37084399Y-19293628D02*
X37084399Y-19579342D01*
X37084399Y-19579342D02*
X37036780Y-19674580D01*
X37036780Y-19674580D02*
X36989161Y-19722200D01*
X36989161Y-19722200D02*
X36893923Y-19769819D01*
X36893923Y-19769819D02*
X36751066Y-19769819D01*
X37655828Y-19769819D02*
X37560590Y-19722200D01*
X37560590Y-19722200D02*
X37512971Y-19626961D01*
X37512971Y-19626961D02*
X37512971Y-18769819D01*
X38179638Y-19769819D02*
X38084400Y-19722200D01*
X38084400Y-19722200D02*
X38036781Y-19674580D01*
X38036781Y-19674580D02*
X37989162Y-19579342D01*
X37989162Y-19579342D02*
X37989162Y-19293628D01*
X37989162Y-19293628D02*
X38036781Y-19198390D01*
X38036781Y-19198390D02*
X38084400Y-19150771D01*
X38084400Y-19150771D02*
X38179638Y-19103152D01*
X38179638Y-19103152D02*
X38322495Y-19103152D01*
X38322495Y-19103152D02*
X38417733Y-19150771D01*
X38417733Y-19150771D02*
X38465352Y-19198390D01*
X38465352Y-19198390D02*
X38512971Y-19293628D01*
X38512971Y-19293628D02*
X38512971Y-19579342D01*
X38512971Y-19579342D02*
X38465352Y-19674580D01*
X38465352Y-19674580D02*
X38417733Y-19722200D01*
X38417733Y-19722200D02*
X38322495Y-19769819D01*
X38322495Y-19769819D02*
X38179638Y-19769819D01*
X39608210Y-19103152D02*
X39798686Y-19769819D01*
X39798686Y-19769819D02*
X39989162Y-19293628D01*
X39989162Y-19293628D02*
X40179638Y-19769819D01*
X40179638Y-19769819D02*
X40370114Y-19103152D01*
X41179638Y-19769819D02*
X41179638Y-19246009D01*
X41179638Y-19246009D02*
X41132019Y-19150771D01*
X41132019Y-19150771D02*
X41036781Y-19103152D01*
X41036781Y-19103152D02*
X40846305Y-19103152D01*
X40846305Y-19103152D02*
X40751067Y-19150771D01*
X41179638Y-19722200D02*
X41084400Y-19769819D01*
X41084400Y-19769819D02*
X40846305Y-19769819D01*
X40846305Y-19769819D02*
X40751067Y-19722200D01*
X40751067Y-19722200D02*
X40703448Y-19626961D01*
X40703448Y-19626961D02*
X40703448Y-19531723D01*
X40703448Y-19531723D02*
X40751067Y-19436485D01*
X40751067Y-19436485D02*
X40846305Y-19388866D01*
X40846305Y-19388866D02*
X41084400Y-19388866D01*
X41084400Y-19388866D02*
X41179638Y-19341247D01*
X41608210Y-19722200D02*
X41703448Y-19769819D01*
X41703448Y-19769819D02*
X41893924Y-19769819D01*
X41893924Y-19769819D02*
X41989162Y-19722200D01*
X41989162Y-19722200D02*
X42036781Y-19626961D01*
X42036781Y-19626961D02*
X42036781Y-19579342D01*
X42036781Y-19579342D02*
X41989162Y-19484104D01*
X41989162Y-19484104D02*
X41893924Y-19436485D01*
X41893924Y-19436485D02*
X41751067Y-19436485D01*
X41751067Y-19436485D02*
X41655829Y-19388866D01*
X41655829Y-19388866D02*
X41608210Y-19293628D01*
X41608210Y-19293628D02*
X41608210Y-19246009D01*
X41608210Y-19246009D02*
X41655829Y-19150771D01*
X41655829Y-19150771D02*
X41751067Y-19103152D01*
X41751067Y-19103152D02*
X41893924Y-19103152D01*
X41893924Y-19103152D02*
X41989162Y-19150771D01*
X43227258Y-19769819D02*
X43227258Y-18769819D01*
X43655829Y-19769819D02*
X43655829Y-19246009D01*
X43655829Y-19246009D02*
X43608210Y-19150771D01*
X43608210Y-19150771D02*
X43512972Y-19103152D01*
X43512972Y-19103152D02*
X43370115Y-19103152D01*
X43370115Y-19103152D02*
X43274877Y-19150771D01*
X43274877Y-19150771D02*
X43227258Y-19198390D01*
X44512972Y-19722200D02*
X44417734Y-19769819D01*
X44417734Y-19769819D02*
X44227258Y-19769819D01*
X44227258Y-19769819D02*
X44132020Y-19722200D01*
X44132020Y-19722200D02*
X44084401Y-19626961D01*
X44084401Y-19626961D02*
X44084401Y-19246009D01*
X44084401Y-19246009D02*
X44132020Y-19150771D01*
X44132020Y-19150771D02*
X44227258Y-19103152D01*
X44227258Y-19103152D02*
X44417734Y-19103152D01*
X44417734Y-19103152D02*
X44512972Y-19150771D01*
X44512972Y-19150771D02*
X44560591Y-19246009D01*
X44560591Y-19246009D02*
X44560591Y-19341247D01*
X44560591Y-19341247D02*
X44084401Y-19436485D01*
X44989163Y-19769819D02*
X44989163Y-19103152D01*
X44989163Y-19293628D02*
X45036782Y-19198390D01*
X45036782Y-19198390D02*
X45084401Y-19150771D01*
X45084401Y-19150771D02*
X45179639Y-19103152D01*
X45179639Y-19103152D02*
X45274877Y-19103152D01*
X45989163Y-19722200D02*
X45893925Y-19769819D01*
X45893925Y-19769819D02*
X45703449Y-19769819D01*
X45703449Y-19769819D02*
X45608211Y-19722200D01*
X45608211Y-19722200D02*
X45560592Y-19626961D01*
X45560592Y-19626961D02*
X45560592Y-19246009D01*
X45560592Y-19246009D02*
X45608211Y-19150771D01*
X45608211Y-19150771D02*
X45703449Y-19103152D01*
X45703449Y-19103152D02*
X45893925Y-19103152D01*
X45893925Y-19103152D02*
X45989163Y-19150771D01*
X45989163Y-19150771D02*
X46036782Y-19246009D01*
X46036782Y-19246009D02*
X46036782Y-19341247D01*
X46036782Y-19341247D02*
X45560592Y-19436485D01*
X47227259Y-19674580D02*
X47274878Y-19722200D01*
X47274878Y-19722200D02*
X47227259Y-19769819D01*
X47227259Y-19769819D02*
X47179640Y-19722200D01*
X47179640Y-19722200D02*
X47227259Y-19674580D01*
X47227259Y-19674580D02*
X47227259Y-19769819D01*
X47227259Y-19150771D02*
X47274878Y-19198390D01*
X47274878Y-19198390D02*
X47227259Y-19246009D01*
X47227259Y-19246009D02*
X47179640Y-19198390D01*
X47179640Y-19198390D02*
X47227259Y-19150771D01*
X47227259Y-19150771D02*
X47227259Y-19246009D01*
X47608211Y-20150771D02*
X47655830Y-20103152D01*
X47655830Y-20103152D02*
X47751068Y-19960295D01*
X47751068Y-19960295D02*
X47798687Y-19865057D01*
X47798687Y-19865057D02*
X47846306Y-19722200D01*
X47846306Y-19722200D02*
X47893925Y-19484104D01*
X47893925Y-19484104D02*
X47893925Y-19293628D01*
X47893925Y-19293628D02*
X47846306Y-19055533D01*
X47846306Y-19055533D02*
X47798687Y-18912676D01*
X47798687Y-18912676D02*
X47751068Y-18817438D01*
X47751068Y-18817438D02*
X47655830Y-18674580D01*
X47655830Y-18674580D02*
X47608211Y-18626961D01*
X49036783Y-19103152D02*
X49274878Y-19769819D01*
X49274878Y-19769819D02*
X49512973Y-19103152D01*
X50417735Y-19769819D02*
X49846307Y-19769819D01*
X50132021Y-19769819D02*
X50132021Y-18769819D01*
X50132021Y-18769819D02*
X50036783Y-18912676D01*
X50036783Y-18912676D02*
X49941545Y-19007914D01*
X49941545Y-19007914D02*
X49846307Y-19055533D01*
X52794700Y-56102032D02*
X52842319Y-55959175D01*
X52842319Y-55959175D02*
X52842319Y-55721080D01*
X52842319Y-55721080D02*
X52794700Y-55625842D01*
X52794700Y-55625842D02*
X52747080Y-55578223D01*
X52747080Y-55578223D02*
X52651842Y-55530604D01*
X52651842Y-55530604D02*
X52556604Y-55530604D01*
X52556604Y-55530604D02*
X52461366Y-55578223D01*
X52461366Y-55578223D02*
X52413747Y-55625842D01*
X52413747Y-55625842D02*
X52366128Y-55721080D01*
X52366128Y-55721080D02*
X52318509Y-55911556D01*
X52318509Y-55911556D02*
X52270890Y-56006794D01*
X52270890Y-56006794D02*
X52223271Y-56054413D01*
X52223271Y-56054413D02*
X52128033Y-56102032D01*
X52128033Y-56102032D02*
X52032795Y-56102032D01*
X52032795Y-56102032D02*
X51937557Y-56054413D01*
X51937557Y-56054413D02*
X51889938Y-56006794D01*
X51889938Y-56006794D02*
X51842319Y-55911556D01*
X51842319Y-55911556D02*
X51842319Y-55673461D01*
X51842319Y-55673461D02*
X51889938Y-55530604D01*
X51842319Y-55197270D02*
X52842319Y-54959175D01*
X52842319Y-54959175D02*
X52128033Y-54768699D01*
X52128033Y-54768699D02*
X52842319Y-54578223D01*
X52842319Y-54578223D02*
X51842319Y-54340128D01*
X51842319Y-53530604D02*
X51842319Y-53721080D01*
X51842319Y-53721080D02*
X51889938Y-53816318D01*
X51889938Y-53816318D02*
X51937557Y-53863937D01*
X51937557Y-53863937D02*
X52080414Y-53959175D01*
X52080414Y-53959175D02*
X52270890Y-54006794D01*
X52270890Y-54006794D02*
X52651842Y-54006794D01*
X52651842Y-54006794D02*
X52747080Y-53959175D01*
X52747080Y-53959175D02*
X52794700Y-53911556D01*
X52794700Y-53911556D02*
X52842319Y-53816318D01*
X52842319Y-53816318D02*
X52842319Y-53625842D01*
X52842319Y-53625842D02*
X52794700Y-53530604D01*
X52794700Y-53530604D02*
X52747080Y-53482985D01*
X52747080Y-53482985D02*
X52651842Y-53435366D01*
X52651842Y-53435366D02*
X52413747Y-53435366D01*
X52413747Y-53435366D02*
X52318509Y-53482985D01*
X52318509Y-53482985D02*
X52270890Y-53530604D01*
X52270890Y-53530604D02*
X52223271Y-53625842D01*
X52223271Y-53625842D02*
X52223271Y-53816318D01*
X52223271Y-53816318D02*
X52270890Y-53911556D01*
X52270890Y-53911556D02*
X52318509Y-53959175D01*
X52318509Y-53959175D02*
X52413747Y-54006794D01*
X33427200Y-94678223D02*
X33474819Y-94535366D01*
X33474819Y-94535366D02*
X33474819Y-94297271D01*
X33474819Y-94297271D02*
X33427200Y-94202033D01*
X33427200Y-94202033D02*
X33379580Y-94154414D01*
X33379580Y-94154414D02*
X33284342Y-94106795D01*
X33284342Y-94106795D02*
X33189104Y-94106795D01*
X33189104Y-94106795D02*
X33093866Y-94154414D01*
X33093866Y-94154414D02*
X33046247Y-94202033D01*
X33046247Y-94202033D02*
X32998628Y-94297271D01*
X32998628Y-94297271D02*
X32951009Y-94487747D01*
X32951009Y-94487747D02*
X32903390Y-94582985D01*
X32903390Y-94582985D02*
X32855771Y-94630604D01*
X32855771Y-94630604D02*
X32760533Y-94678223D01*
X32760533Y-94678223D02*
X32665295Y-94678223D01*
X32665295Y-94678223D02*
X32570057Y-94630604D01*
X32570057Y-94630604D02*
X32522438Y-94582985D01*
X32522438Y-94582985D02*
X32474819Y-94487747D01*
X32474819Y-94487747D02*
X32474819Y-94249652D01*
X32474819Y-94249652D02*
X32522438Y-94106795D01*
X32474819Y-93773461D02*
X33474819Y-93535366D01*
X33474819Y-93535366D02*
X32760533Y-93344890D01*
X32760533Y-93344890D02*
X33474819Y-93154414D01*
X33474819Y-93154414D02*
X32474819Y-92916319D01*
X33474819Y-92011557D02*
X33474819Y-92582985D01*
X33474819Y-92297271D02*
X32474819Y-92297271D01*
X32474819Y-92297271D02*
X32617676Y-92392509D01*
X32617676Y-92392509D02*
X32712914Y-92487747D01*
X32712914Y-92487747D02*
X32760533Y-92582985D01*
X32474819Y-91678223D02*
X32474819Y-91059176D01*
X32474819Y-91059176D02*
X32855771Y-91392509D01*
X32855771Y-91392509D02*
X32855771Y-91249652D01*
X32855771Y-91249652D02*
X32903390Y-91154414D01*
X32903390Y-91154414D02*
X32951009Y-91106795D01*
X32951009Y-91106795D02*
X33046247Y-91059176D01*
X33046247Y-91059176D02*
X33284342Y-91059176D01*
X33284342Y-91059176D02*
X33379580Y-91106795D01*
X33379580Y-91106795D02*
X33427200Y-91154414D01*
X33427200Y-91154414D02*
X33474819Y-91249652D01*
X33474819Y-91249652D02*
X33474819Y-91535366D01*
X33474819Y-91535366D02*
X33427200Y-91630604D01*
X33427200Y-91630604D02*
X33379580Y-91678223D01*
X90894700Y-56102032D02*
X90942319Y-55959175D01*
X90942319Y-55959175D02*
X90942319Y-55721080D01*
X90942319Y-55721080D02*
X90894700Y-55625842D01*
X90894700Y-55625842D02*
X90847080Y-55578223D01*
X90847080Y-55578223D02*
X90751842Y-55530604D01*
X90751842Y-55530604D02*
X90656604Y-55530604D01*
X90656604Y-55530604D02*
X90561366Y-55578223D01*
X90561366Y-55578223D02*
X90513747Y-55625842D01*
X90513747Y-55625842D02*
X90466128Y-55721080D01*
X90466128Y-55721080D02*
X90418509Y-55911556D01*
X90418509Y-55911556D02*
X90370890Y-56006794D01*
X90370890Y-56006794D02*
X90323271Y-56054413D01*
X90323271Y-56054413D02*
X90228033Y-56102032D01*
X90228033Y-56102032D02*
X90132795Y-56102032D01*
X90132795Y-56102032D02*
X90037557Y-56054413D01*
X90037557Y-56054413D02*
X89989938Y-56006794D01*
X89989938Y-56006794D02*
X89942319Y-55911556D01*
X89942319Y-55911556D02*
X89942319Y-55673461D01*
X89942319Y-55673461D02*
X89989938Y-55530604D01*
X89942319Y-55197270D02*
X90942319Y-54959175D01*
X90942319Y-54959175D02*
X90228033Y-54768699D01*
X90228033Y-54768699D02*
X90942319Y-54578223D01*
X90942319Y-54578223D02*
X89942319Y-54340128D01*
X90370890Y-53816318D02*
X90323271Y-53911556D01*
X90323271Y-53911556D02*
X90275652Y-53959175D01*
X90275652Y-53959175D02*
X90180414Y-54006794D01*
X90180414Y-54006794D02*
X90132795Y-54006794D01*
X90132795Y-54006794D02*
X90037557Y-53959175D01*
X90037557Y-53959175D02*
X89989938Y-53911556D01*
X89989938Y-53911556D02*
X89942319Y-53816318D01*
X89942319Y-53816318D02*
X89942319Y-53625842D01*
X89942319Y-53625842D02*
X89989938Y-53530604D01*
X89989938Y-53530604D02*
X90037557Y-53482985D01*
X90037557Y-53482985D02*
X90132795Y-53435366D01*
X90132795Y-53435366D02*
X90180414Y-53435366D01*
X90180414Y-53435366D02*
X90275652Y-53482985D01*
X90275652Y-53482985D02*
X90323271Y-53530604D01*
X90323271Y-53530604D02*
X90370890Y-53625842D01*
X90370890Y-53625842D02*
X90370890Y-53816318D01*
X90370890Y-53816318D02*
X90418509Y-53911556D01*
X90418509Y-53911556D02*
X90466128Y-53959175D01*
X90466128Y-53959175D02*
X90561366Y-54006794D01*
X90561366Y-54006794D02*
X90751842Y-54006794D01*
X90751842Y-54006794D02*
X90847080Y-53959175D01*
X90847080Y-53959175D02*
X90894700Y-53911556D01*
X90894700Y-53911556D02*
X90942319Y-53816318D01*
X90942319Y-53816318D02*
X90942319Y-53625842D01*
X90942319Y-53625842D02*
X90894700Y-53530604D01*
X90894700Y-53530604D02*
X90847080Y-53482985D01*
X90847080Y-53482985D02*
X90751842Y-53435366D01*
X90751842Y-53435366D02*
X90561366Y-53435366D01*
X90561366Y-53435366D02*
X90466128Y-53482985D01*
X90466128Y-53482985D02*
X90418509Y-53530604D01*
X90418509Y-53530604D02*
X90370890Y-53625842D01*
X105163095Y-94786019D02*
X105163095Y-93786019D01*
X105163095Y-94262209D02*
X105734523Y-94262209D01*
X105734523Y-94786019D02*
X105734523Y-93786019D01*
X106734523Y-94786019D02*
X106163095Y-94786019D01*
X106448809Y-94786019D02*
X106448809Y-93786019D01*
X106448809Y-93786019D02*
X106353571Y-93928876D01*
X106353571Y-93928876D02*
X106258333Y-94024114D01*
X106258333Y-94024114D02*
X106163095Y-94071733D01*
X33744700Y-75152032D02*
X33792319Y-75009175D01*
X33792319Y-75009175D02*
X33792319Y-74771080D01*
X33792319Y-74771080D02*
X33744700Y-74675842D01*
X33744700Y-74675842D02*
X33697080Y-74628223D01*
X33697080Y-74628223D02*
X33601842Y-74580604D01*
X33601842Y-74580604D02*
X33506604Y-74580604D01*
X33506604Y-74580604D02*
X33411366Y-74628223D01*
X33411366Y-74628223D02*
X33363747Y-74675842D01*
X33363747Y-74675842D02*
X33316128Y-74771080D01*
X33316128Y-74771080D02*
X33268509Y-74961556D01*
X33268509Y-74961556D02*
X33220890Y-75056794D01*
X33220890Y-75056794D02*
X33173271Y-75104413D01*
X33173271Y-75104413D02*
X33078033Y-75152032D01*
X33078033Y-75152032D02*
X32982795Y-75152032D01*
X32982795Y-75152032D02*
X32887557Y-75104413D01*
X32887557Y-75104413D02*
X32839938Y-75056794D01*
X32839938Y-75056794D02*
X32792319Y-74961556D01*
X32792319Y-74961556D02*
X32792319Y-74723461D01*
X32792319Y-74723461D02*
X32839938Y-74580604D01*
X32792319Y-74247270D02*
X33792319Y-74009175D01*
X33792319Y-74009175D02*
X33078033Y-73818699D01*
X33078033Y-73818699D02*
X33792319Y-73628223D01*
X33792319Y-73628223D02*
X32792319Y-73390128D01*
X33792319Y-72961556D02*
X33792319Y-72771080D01*
X33792319Y-72771080D02*
X33744700Y-72675842D01*
X33744700Y-72675842D02*
X33697080Y-72628223D01*
X33697080Y-72628223D02*
X33554223Y-72532985D01*
X33554223Y-72532985D02*
X33363747Y-72485366D01*
X33363747Y-72485366D02*
X32982795Y-72485366D01*
X32982795Y-72485366D02*
X32887557Y-72532985D01*
X32887557Y-72532985D02*
X32839938Y-72580604D01*
X32839938Y-72580604D02*
X32792319Y-72675842D01*
X32792319Y-72675842D02*
X32792319Y-72866318D01*
X32792319Y-72866318D02*
X32839938Y-72961556D01*
X32839938Y-72961556D02*
X32887557Y-73009175D01*
X32887557Y-73009175D02*
X32982795Y-73056794D01*
X32982795Y-73056794D02*
X33220890Y-73056794D01*
X33220890Y-73056794D02*
X33316128Y-73009175D01*
X33316128Y-73009175D02*
X33363747Y-72961556D01*
X33363747Y-72961556D02*
X33411366Y-72866318D01*
X33411366Y-72866318D02*
X33411366Y-72675842D01*
X33411366Y-72675842D02*
X33363747Y-72580604D01*
X33363747Y-72580604D02*
X33316128Y-72532985D01*
X33316128Y-72532985D02*
X33220890Y-72485366D01*
X90894700Y-75628223D02*
X90942319Y-75485366D01*
X90942319Y-75485366D02*
X90942319Y-75247271D01*
X90942319Y-75247271D02*
X90894700Y-75152033D01*
X90894700Y-75152033D02*
X90847080Y-75104414D01*
X90847080Y-75104414D02*
X90751842Y-75056795D01*
X90751842Y-75056795D02*
X90656604Y-75056795D01*
X90656604Y-75056795D02*
X90561366Y-75104414D01*
X90561366Y-75104414D02*
X90513747Y-75152033D01*
X90513747Y-75152033D02*
X90466128Y-75247271D01*
X90466128Y-75247271D02*
X90418509Y-75437747D01*
X90418509Y-75437747D02*
X90370890Y-75532985D01*
X90370890Y-75532985D02*
X90323271Y-75580604D01*
X90323271Y-75580604D02*
X90228033Y-75628223D01*
X90228033Y-75628223D02*
X90132795Y-75628223D01*
X90132795Y-75628223D02*
X90037557Y-75580604D01*
X90037557Y-75580604D02*
X89989938Y-75532985D01*
X89989938Y-75532985D02*
X89942319Y-75437747D01*
X89942319Y-75437747D02*
X89942319Y-75199652D01*
X89942319Y-75199652D02*
X89989938Y-75056795D01*
X89942319Y-74723461D02*
X90942319Y-74485366D01*
X90942319Y-74485366D02*
X90228033Y-74294890D01*
X90228033Y-74294890D02*
X90942319Y-74104414D01*
X90942319Y-74104414D02*
X89942319Y-73866319D01*
X90942319Y-72961557D02*
X90942319Y-73532985D01*
X90942319Y-73247271D02*
X89942319Y-73247271D01*
X89942319Y-73247271D02*
X90085176Y-73342509D01*
X90085176Y-73342509D02*
X90180414Y-73437747D01*
X90180414Y-73437747D02*
X90228033Y-73532985D01*
X90037557Y-72580604D02*
X89989938Y-72532985D01*
X89989938Y-72532985D02*
X89942319Y-72437747D01*
X89942319Y-72437747D02*
X89942319Y-72199652D01*
X89942319Y-72199652D02*
X89989938Y-72104414D01*
X89989938Y-72104414D02*
X90037557Y-72056795D01*
X90037557Y-72056795D02*
X90132795Y-72009176D01*
X90132795Y-72009176D02*
X90228033Y-72009176D01*
X90228033Y-72009176D02*
X90370890Y-72056795D01*
X90370890Y-72056795D02*
X90942319Y-72628223D01*
X90942319Y-72628223D02*
X90942319Y-72009176D01*
X33744700Y-37052032D02*
X33792319Y-36909175D01*
X33792319Y-36909175D02*
X33792319Y-36671080D01*
X33792319Y-36671080D02*
X33744700Y-36575842D01*
X33744700Y-36575842D02*
X33697080Y-36528223D01*
X33697080Y-36528223D02*
X33601842Y-36480604D01*
X33601842Y-36480604D02*
X33506604Y-36480604D01*
X33506604Y-36480604D02*
X33411366Y-36528223D01*
X33411366Y-36528223D02*
X33363747Y-36575842D01*
X33363747Y-36575842D02*
X33316128Y-36671080D01*
X33316128Y-36671080D02*
X33268509Y-36861556D01*
X33268509Y-36861556D02*
X33220890Y-36956794D01*
X33220890Y-36956794D02*
X33173271Y-37004413D01*
X33173271Y-37004413D02*
X33078033Y-37052032D01*
X33078033Y-37052032D02*
X32982795Y-37052032D01*
X32982795Y-37052032D02*
X32887557Y-37004413D01*
X32887557Y-37004413D02*
X32839938Y-36956794D01*
X32839938Y-36956794D02*
X32792319Y-36861556D01*
X32792319Y-36861556D02*
X32792319Y-36623461D01*
X32792319Y-36623461D02*
X32839938Y-36480604D01*
X32792319Y-36147270D02*
X33792319Y-35909175D01*
X33792319Y-35909175D02*
X33078033Y-35718699D01*
X33078033Y-35718699D02*
X33792319Y-35528223D01*
X33792319Y-35528223D02*
X32792319Y-35290128D01*
X33792319Y-34385366D02*
X33792319Y-34956794D01*
X33792319Y-34671080D02*
X32792319Y-34671080D01*
X32792319Y-34671080D02*
X32935176Y-34766318D01*
X32935176Y-34766318D02*
X33030414Y-34861556D01*
X33030414Y-34861556D02*
X33078033Y-34956794D01*
X90894700Y-37052032D02*
X90942319Y-36909175D01*
X90942319Y-36909175D02*
X90942319Y-36671080D01*
X90942319Y-36671080D02*
X90894700Y-36575842D01*
X90894700Y-36575842D02*
X90847080Y-36528223D01*
X90847080Y-36528223D02*
X90751842Y-36480604D01*
X90751842Y-36480604D02*
X90656604Y-36480604D01*
X90656604Y-36480604D02*
X90561366Y-36528223D01*
X90561366Y-36528223D02*
X90513747Y-36575842D01*
X90513747Y-36575842D02*
X90466128Y-36671080D01*
X90466128Y-36671080D02*
X90418509Y-36861556D01*
X90418509Y-36861556D02*
X90370890Y-36956794D01*
X90370890Y-36956794D02*
X90323271Y-37004413D01*
X90323271Y-37004413D02*
X90228033Y-37052032D01*
X90228033Y-37052032D02*
X90132795Y-37052032D01*
X90132795Y-37052032D02*
X90037557Y-37004413D01*
X90037557Y-37004413D02*
X89989938Y-36956794D01*
X89989938Y-36956794D02*
X89942319Y-36861556D01*
X89942319Y-36861556D02*
X89942319Y-36623461D01*
X89942319Y-36623461D02*
X89989938Y-36480604D01*
X89942319Y-36147270D02*
X90942319Y-35909175D01*
X90942319Y-35909175D02*
X90228033Y-35718699D01*
X90228033Y-35718699D02*
X90942319Y-35528223D01*
X90942319Y-35528223D02*
X89942319Y-35290128D01*
X90275652Y-34480604D02*
X90942319Y-34480604D01*
X89894700Y-34718699D02*
X90608985Y-34956794D01*
X90608985Y-34956794D02*
X90608985Y-34337747D01*
X71844700Y-37052032D02*
X71892319Y-36909175D01*
X71892319Y-36909175D02*
X71892319Y-36671080D01*
X71892319Y-36671080D02*
X71844700Y-36575842D01*
X71844700Y-36575842D02*
X71797080Y-36528223D01*
X71797080Y-36528223D02*
X71701842Y-36480604D01*
X71701842Y-36480604D02*
X71606604Y-36480604D01*
X71606604Y-36480604D02*
X71511366Y-36528223D01*
X71511366Y-36528223D02*
X71463747Y-36575842D01*
X71463747Y-36575842D02*
X71416128Y-36671080D01*
X71416128Y-36671080D02*
X71368509Y-36861556D01*
X71368509Y-36861556D02*
X71320890Y-36956794D01*
X71320890Y-36956794D02*
X71273271Y-37004413D01*
X71273271Y-37004413D02*
X71178033Y-37052032D01*
X71178033Y-37052032D02*
X71082795Y-37052032D01*
X71082795Y-37052032D02*
X70987557Y-37004413D01*
X70987557Y-37004413D02*
X70939938Y-36956794D01*
X70939938Y-36956794D02*
X70892319Y-36861556D01*
X70892319Y-36861556D02*
X70892319Y-36623461D01*
X70892319Y-36623461D02*
X70939938Y-36480604D01*
X70892319Y-36147270D02*
X71892319Y-35909175D01*
X71892319Y-35909175D02*
X71178033Y-35718699D01*
X71178033Y-35718699D02*
X71892319Y-35528223D01*
X71892319Y-35528223D02*
X70892319Y-35290128D01*
X70892319Y-35004413D02*
X70892319Y-34385366D01*
X70892319Y-34385366D02*
X71273271Y-34718699D01*
X71273271Y-34718699D02*
X71273271Y-34575842D01*
X71273271Y-34575842D02*
X71320890Y-34480604D01*
X71320890Y-34480604D02*
X71368509Y-34432985D01*
X71368509Y-34432985D02*
X71463747Y-34385366D01*
X71463747Y-34385366D02*
X71701842Y-34385366D01*
X71701842Y-34385366D02*
X71797080Y-34432985D01*
X71797080Y-34432985D02*
X71844700Y-34480604D01*
X71844700Y-34480604D02*
X71892319Y-34575842D01*
X71892319Y-34575842D02*
X71892319Y-34861556D01*
X71892319Y-34861556D02*
X71844700Y-34956794D01*
X71844700Y-34956794D02*
X71797080Y-35004413D01*
X71844700Y-94678223D02*
X71892319Y-94535366D01*
X71892319Y-94535366D02*
X71892319Y-94297271D01*
X71892319Y-94297271D02*
X71844700Y-94202033D01*
X71844700Y-94202033D02*
X71797080Y-94154414D01*
X71797080Y-94154414D02*
X71701842Y-94106795D01*
X71701842Y-94106795D02*
X71606604Y-94106795D01*
X71606604Y-94106795D02*
X71511366Y-94154414D01*
X71511366Y-94154414D02*
X71463747Y-94202033D01*
X71463747Y-94202033D02*
X71416128Y-94297271D01*
X71416128Y-94297271D02*
X71368509Y-94487747D01*
X71368509Y-94487747D02*
X71320890Y-94582985D01*
X71320890Y-94582985D02*
X71273271Y-94630604D01*
X71273271Y-94630604D02*
X71178033Y-94678223D01*
X71178033Y-94678223D02*
X71082795Y-94678223D01*
X71082795Y-94678223D02*
X70987557Y-94630604D01*
X70987557Y-94630604D02*
X70939938Y-94582985D01*
X70939938Y-94582985D02*
X70892319Y-94487747D01*
X70892319Y-94487747D02*
X70892319Y-94249652D01*
X70892319Y-94249652D02*
X70939938Y-94106795D01*
X70892319Y-93773461D02*
X71892319Y-93535366D01*
X71892319Y-93535366D02*
X71178033Y-93344890D01*
X71178033Y-93344890D02*
X71892319Y-93154414D01*
X71892319Y-93154414D02*
X70892319Y-92916319D01*
X71892319Y-92011557D02*
X71892319Y-92582985D01*
X71892319Y-92297271D02*
X70892319Y-92297271D01*
X70892319Y-92297271D02*
X71035176Y-92392509D01*
X71035176Y-92392509D02*
X71130414Y-92487747D01*
X71130414Y-92487747D02*
X71178033Y-92582985D01*
X70892319Y-91106795D02*
X70892319Y-91582985D01*
X70892319Y-91582985D02*
X71368509Y-91630604D01*
X71368509Y-91630604D02*
X71320890Y-91582985D01*
X71320890Y-91582985D02*
X71273271Y-91487747D01*
X71273271Y-91487747D02*
X71273271Y-91249652D01*
X71273271Y-91249652D02*
X71320890Y-91154414D01*
X71320890Y-91154414D02*
X71368509Y-91106795D01*
X71368509Y-91106795D02*
X71463747Y-91059176D01*
X71463747Y-91059176D02*
X71701842Y-91059176D01*
X71701842Y-91059176D02*
X71797080Y-91106795D01*
X71797080Y-91106795D02*
X71844700Y-91154414D01*
X71844700Y-91154414D02*
X71892319Y-91249652D01*
X71892319Y-91249652D02*
X71892319Y-91487747D01*
X71892319Y-91487747D02*
X71844700Y-91582985D01*
X71844700Y-91582985D02*
X71797080Y-91630604D01*
X90894700Y-94678223D02*
X90942319Y-94535366D01*
X90942319Y-94535366D02*
X90942319Y-94297271D01*
X90942319Y-94297271D02*
X90894700Y-94202033D01*
X90894700Y-94202033D02*
X90847080Y-94154414D01*
X90847080Y-94154414D02*
X90751842Y-94106795D01*
X90751842Y-94106795D02*
X90656604Y-94106795D01*
X90656604Y-94106795D02*
X90561366Y-94154414D01*
X90561366Y-94154414D02*
X90513747Y-94202033D01*
X90513747Y-94202033D02*
X90466128Y-94297271D01*
X90466128Y-94297271D02*
X90418509Y-94487747D01*
X90418509Y-94487747D02*
X90370890Y-94582985D01*
X90370890Y-94582985D02*
X90323271Y-94630604D01*
X90323271Y-94630604D02*
X90228033Y-94678223D01*
X90228033Y-94678223D02*
X90132795Y-94678223D01*
X90132795Y-94678223D02*
X90037557Y-94630604D01*
X90037557Y-94630604D02*
X89989938Y-94582985D01*
X89989938Y-94582985D02*
X89942319Y-94487747D01*
X89942319Y-94487747D02*
X89942319Y-94249652D01*
X89942319Y-94249652D02*
X89989938Y-94106795D01*
X89942319Y-93773461D02*
X90942319Y-93535366D01*
X90942319Y-93535366D02*
X90228033Y-93344890D01*
X90228033Y-93344890D02*
X90942319Y-93154414D01*
X90942319Y-93154414D02*
X89942319Y-92916319D01*
X90942319Y-92011557D02*
X90942319Y-92582985D01*
X90942319Y-92297271D02*
X89942319Y-92297271D01*
X89942319Y-92297271D02*
X90085176Y-92392509D01*
X90085176Y-92392509D02*
X90180414Y-92487747D01*
X90180414Y-92487747D02*
X90228033Y-92582985D01*
X89942319Y-91154414D02*
X89942319Y-91344890D01*
X89942319Y-91344890D02*
X89989938Y-91440128D01*
X89989938Y-91440128D02*
X90037557Y-91487747D01*
X90037557Y-91487747D02*
X90180414Y-91582985D01*
X90180414Y-91582985D02*
X90370890Y-91630604D01*
X90370890Y-91630604D02*
X90751842Y-91630604D01*
X90751842Y-91630604D02*
X90847080Y-91582985D01*
X90847080Y-91582985D02*
X90894700Y-91535366D01*
X90894700Y-91535366D02*
X90942319Y-91440128D01*
X90942319Y-91440128D02*
X90942319Y-91249652D01*
X90942319Y-91249652D02*
X90894700Y-91154414D01*
X90894700Y-91154414D02*
X90847080Y-91106795D01*
X90847080Y-91106795D02*
X90751842Y-91059176D01*
X90751842Y-91059176D02*
X90513747Y-91059176D01*
X90513747Y-91059176D02*
X90418509Y-91106795D01*
X90418509Y-91106795D02*
X90370890Y-91154414D01*
X90370890Y-91154414D02*
X90323271Y-91249652D01*
X90323271Y-91249652D02*
X90323271Y-91440128D01*
X90323271Y-91440128D02*
X90370890Y-91535366D01*
X90370890Y-91535366D02*
X90418509Y-91582985D01*
X90418509Y-91582985D02*
X90513747Y-91630604D01*
X52794700Y-37052032D02*
X52842319Y-36909175D01*
X52842319Y-36909175D02*
X52842319Y-36671080D01*
X52842319Y-36671080D02*
X52794700Y-36575842D01*
X52794700Y-36575842D02*
X52747080Y-36528223D01*
X52747080Y-36528223D02*
X52651842Y-36480604D01*
X52651842Y-36480604D02*
X52556604Y-36480604D01*
X52556604Y-36480604D02*
X52461366Y-36528223D01*
X52461366Y-36528223D02*
X52413747Y-36575842D01*
X52413747Y-36575842D02*
X52366128Y-36671080D01*
X52366128Y-36671080D02*
X52318509Y-36861556D01*
X52318509Y-36861556D02*
X52270890Y-36956794D01*
X52270890Y-36956794D02*
X52223271Y-37004413D01*
X52223271Y-37004413D02*
X52128033Y-37052032D01*
X52128033Y-37052032D02*
X52032795Y-37052032D01*
X52032795Y-37052032D02*
X51937557Y-37004413D01*
X51937557Y-37004413D02*
X51889938Y-36956794D01*
X51889938Y-36956794D02*
X51842319Y-36861556D01*
X51842319Y-36861556D02*
X51842319Y-36623461D01*
X51842319Y-36623461D02*
X51889938Y-36480604D01*
X51842319Y-36147270D02*
X52842319Y-35909175D01*
X52842319Y-35909175D02*
X52128033Y-35718699D01*
X52128033Y-35718699D02*
X52842319Y-35528223D01*
X52842319Y-35528223D02*
X51842319Y-35290128D01*
X51937557Y-34956794D02*
X51889938Y-34909175D01*
X51889938Y-34909175D02*
X51842319Y-34813937D01*
X51842319Y-34813937D02*
X51842319Y-34575842D01*
X51842319Y-34575842D02*
X51889938Y-34480604D01*
X51889938Y-34480604D02*
X51937557Y-34432985D01*
X51937557Y-34432985D02*
X52032795Y-34385366D01*
X52032795Y-34385366D02*
X52128033Y-34385366D01*
X52128033Y-34385366D02*
X52270890Y-34432985D01*
X52270890Y-34432985D02*
X52842319Y-35004413D01*
X52842319Y-35004413D02*
X52842319Y-34385366D01*
X52794700Y-94678223D02*
X52842319Y-94535366D01*
X52842319Y-94535366D02*
X52842319Y-94297271D01*
X52842319Y-94297271D02*
X52794700Y-94202033D01*
X52794700Y-94202033D02*
X52747080Y-94154414D01*
X52747080Y-94154414D02*
X52651842Y-94106795D01*
X52651842Y-94106795D02*
X52556604Y-94106795D01*
X52556604Y-94106795D02*
X52461366Y-94154414D01*
X52461366Y-94154414D02*
X52413747Y-94202033D01*
X52413747Y-94202033D02*
X52366128Y-94297271D01*
X52366128Y-94297271D02*
X52318509Y-94487747D01*
X52318509Y-94487747D02*
X52270890Y-94582985D01*
X52270890Y-94582985D02*
X52223271Y-94630604D01*
X52223271Y-94630604D02*
X52128033Y-94678223D01*
X52128033Y-94678223D02*
X52032795Y-94678223D01*
X52032795Y-94678223D02*
X51937557Y-94630604D01*
X51937557Y-94630604D02*
X51889938Y-94582985D01*
X51889938Y-94582985D02*
X51842319Y-94487747D01*
X51842319Y-94487747D02*
X51842319Y-94249652D01*
X51842319Y-94249652D02*
X51889938Y-94106795D01*
X51842319Y-93773461D02*
X52842319Y-93535366D01*
X52842319Y-93535366D02*
X52128033Y-93344890D01*
X52128033Y-93344890D02*
X52842319Y-93154414D01*
X52842319Y-93154414D02*
X51842319Y-92916319D01*
X52842319Y-92011557D02*
X52842319Y-92582985D01*
X52842319Y-92297271D02*
X51842319Y-92297271D01*
X51842319Y-92297271D02*
X51985176Y-92392509D01*
X51985176Y-92392509D02*
X52080414Y-92487747D01*
X52080414Y-92487747D02*
X52128033Y-92582985D01*
X52175652Y-91154414D02*
X52842319Y-91154414D01*
X51794700Y-91392509D02*
X52508985Y-91630604D01*
X52508985Y-91630604D02*
X52508985Y-91011557D01*
X26663095Y-94786019D02*
X26663095Y-93786019D01*
X26663095Y-94262209D02*
X27234523Y-94262209D01*
X27234523Y-94786019D02*
X27234523Y-93786019D01*
X27663095Y-93881257D02*
X27710714Y-93833638D01*
X27710714Y-93833638D02*
X27805952Y-93786019D01*
X27805952Y-93786019D02*
X28044047Y-93786019D01*
X28044047Y-93786019D02*
X28139285Y-93833638D01*
X28139285Y-93833638D02*
X28186904Y-93881257D01*
X28186904Y-93881257D02*
X28234523Y-93976495D01*
X28234523Y-93976495D02*
X28234523Y-94071733D01*
X28234523Y-94071733D02*
X28186904Y-94214590D01*
X28186904Y-94214590D02*
X27615476Y-94786019D01*
X27615476Y-94786019D02*
X28234523Y-94786019D01*
X26663095Y-16286019D02*
X26663095Y-15286019D01*
X26663095Y-15762209D02*
X27234523Y-15762209D01*
X27234523Y-16286019D02*
X27234523Y-15286019D01*
X28139285Y-15619352D02*
X28139285Y-16286019D01*
X27901190Y-15238400D02*
X27663095Y-15952685D01*
X27663095Y-15952685D02*
X28282142Y-15952685D01*
X71844700Y-56102032D02*
X71892319Y-55959175D01*
X71892319Y-55959175D02*
X71892319Y-55721080D01*
X71892319Y-55721080D02*
X71844700Y-55625842D01*
X71844700Y-55625842D02*
X71797080Y-55578223D01*
X71797080Y-55578223D02*
X71701842Y-55530604D01*
X71701842Y-55530604D02*
X71606604Y-55530604D01*
X71606604Y-55530604D02*
X71511366Y-55578223D01*
X71511366Y-55578223D02*
X71463747Y-55625842D01*
X71463747Y-55625842D02*
X71416128Y-55721080D01*
X71416128Y-55721080D02*
X71368509Y-55911556D01*
X71368509Y-55911556D02*
X71320890Y-56006794D01*
X71320890Y-56006794D02*
X71273271Y-56054413D01*
X71273271Y-56054413D02*
X71178033Y-56102032D01*
X71178033Y-56102032D02*
X71082795Y-56102032D01*
X71082795Y-56102032D02*
X70987557Y-56054413D01*
X70987557Y-56054413D02*
X70939938Y-56006794D01*
X70939938Y-56006794D02*
X70892319Y-55911556D01*
X70892319Y-55911556D02*
X70892319Y-55673461D01*
X70892319Y-55673461D02*
X70939938Y-55530604D01*
X70892319Y-55197270D02*
X71892319Y-54959175D01*
X71892319Y-54959175D02*
X71178033Y-54768699D01*
X71178033Y-54768699D02*
X71892319Y-54578223D01*
X71892319Y-54578223D02*
X70892319Y-54340128D01*
X70892319Y-54054413D02*
X70892319Y-53387747D01*
X70892319Y-53387747D02*
X71892319Y-53816318D01*
X33744700Y-56102032D02*
X33792319Y-55959175D01*
X33792319Y-55959175D02*
X33792319Y-55721080D01*
X33792319Y-55721080D02*
X33744700Y-55625842D01*
X33744700Y-55625842D02*
X33697080Y-55578223D01*
X33697080Y-55578223D02*
X33601842Y-55530604D01*
X33601842Y-55530604D02*
X33506604Y-55530604D01*
X33506604Y-55530604D02*
X33411366Y-55578223D01*
X33411366Y-55578223D02*
X33363747Y-55625842D01*
X33363747Y-55625842D02*
X33316128Y-55721080D01*
X33316128Y-55721080D02*
X33268509Y-55911556D01*
X33268509Y-55911556D02*
X33220890Y-56006794D01*
X33220890Y-56006794D02*
X33173271Y-56054413D01*
X33173271Y-56054413D02*
X33078033Y-56102032D01*
X33078033Y-56102032D02*
X32982795Y-56102032D01*
X32982795Y-56102032D02*
X32887557Y-56054413D01*
X32887557Y-56054413D02*
X32839938Y-56006794D01*
X32839938Y-56006794D02*
X32792319Y-55911556D01*
X32792319Y-55911556D02*
X32792319Y-55673461D01*
X32792319Y-55673461D02*
X32839938Y-55530604D01*
X32792319Y-55197270D02*
X33792319Y-54959175D01*
X33792319Y-54959175D02*
X33078033Y-54768699D01*
X33078033Y-54768699D02*
X33792319Y-54578223D01*
X33792319Y-54578223D02*
X32792319Y-54340128D01*
X32792319Y-53482985D02*
X32792319Y-53959175D01*
X32792319Y-53959175D02*
X33268509Y-54006794D01*
X33268509Y-54006794D02*
X33220890Y-53959175D01*
X33220890Y-53959175D02*
X33173271Y-53863937D01*
X33173271Y-53863937D02*
X33173271Y-53625842D01*
X33173271Y-53625842D02*
X33220890Y-53530604D01*
X33220890Y-53530604D02*
X33268509Y-53482985D01*
X33268509Y-53482985D02*
X33363747Y-53435366D01*
X33363747Y-53435366D02*
X33601842Y-53435366D01*
X33601842Y-53435366D02*
X33697080Y-53482985D01*
X33697080Y-53482985D02*
X33744700Y-53530604D01*
X33744700Y-53530604D02*
X33792319Y-53625842D01*
X33792319Y-53625842D02*
X33792319Y-53863937D01*
X33792319Y-53863937D02*
X33744700Y-53959175D01*
X33744700Y-53959175D02*
X33697080Y-54006794D01*
X105163095Y-16286019D02*
X105163095Y-15286019D01*
X105163095Y-15762209D02*
X105734523Y-15762209D01*
X105734523Y-16286019D02*
X105734523Y-15286019D01*
X106115476Y-15286019D02*
X106734523Y-15286019D01*
X106734523Y-15286019D02*
X106401190Y-15666971D01*
X106401190Y-15666971D02*
X106544047Y-15666971D01*
X106544047Y-15666971D02*
X106639285Y-15714590D01*
X106639285Y-15714590D02*
X106686904Y-15762209D01*
X106686904Y-15762209D02*
X106734523Y-15857447D01*
X106734523Y-15857447D02*
X106734523Y-16095542D01*
X106734523Y-16095542D02*
X106686904Y-16190780D01*
X106686904Y-16190780D02*
X106639285Y-16238400D01*
X106639285Y-16238400D02*
X106544047Y-16286019D01*
X106544047Y-16286019D02*
X106258333Y-16286019D01*
X106258333Y-16286019D02*
X106163095Y-16238400D01*
X106163095Y-16238400D02*
X106115476Y-16190780D01*
X71844700Y-75628223D02*
X71892319Y-75485366D01*
X71892319Y-75485366D02*
X71892319Y-75247271D01*
X71892319Y-75247271D02*
X71844700Y-75152033D01*
X71844700Y-75152033D02*
X71797080Y-75104414D01*
X71797080Y-75104414D02*
X71701842Y-75056795D01*
X71701842Y-75056795D02*
X71606604Y-75056795D01*
X71606604Y-75056795D02*
X71511366Y-75104414D01*
X71511366Y-75104414D02*
X71463747Y-75152033D01*
X71463747Y-75152033D02*
X71416128Y-75247271D01*
X71416128Y-75247271D02*
X71368509Y-75437747D01*
X71368509Y-75437747D02*
X71320890Y-75532985D01*
X71320890Y-75532985D02*
X71273271Y-75580604D01*
X71273271Y-75580604D02*
X71178033Y-75628223D01*
X71178033Y-75628223D02*
X71082795Y-75628223D01*
X71082795Y-75628223D02*
X70987557Y-75580604D01*
X70987557Y-75580604D02*
X70939938Y-75532985D01*
X70939938Y-75532985D02*
X70892319Y-75437747D01*
X70892319Y-75437747D02*
X70892319Y-75199652D01*
X70892319Y-75199652D02*
X70939938Y-75056795D01*
X70892319Y-74723461D02*
X71892319Y-74485366D01*
X71892319Y-74485366D02*
X71178033Y-74294890D01*
X71178033Y-74294890D02*
X71892319Y-74104414D01*
X71892319Y-74104414D02*
X70892319Y-73866319D01*
X71892319Y-72961557D02*
X71892319Y-73532985D01*
X71892319Y-73247271D02*
X70892319Y-73247271D01*
X70892319Y-73247271D02*
X71035176Y-73342509D01*
X71035176Y-73342509D02*
X71130414Y-73437747D01*
X71130414Y-73437747D02*
X71178033Y-73532985D01*
X71892319Y-72009176D02*
X71892319Y-72580604D01*
X71892319Y-72294890D02*
X70892319Y-72294890D01*
X70892319Y-72294890D02*
X71035176Y-72390128D01*
X71035176Y-72390128D02*
X71130414Y-72485366D01*
X71130414Y-72485366D02*
X71178033Y-72580604D01*
X52794700Y-75628223D02*
X52842319Y-75485366D01*
X52842319Y-75485366D02*
X52842319Y-75247271D01*
X52842319Y-75247271D02*
X52794700Y-75152033D01*
X52794700Y-75152033D02*
X52747080Y-75104414D01*
X52747080Y-75104414D02*
X52651842Y-75056795D01*
X52651842Y-75056795D02*
X52556604Y-75056795D01*
X52556604Y-75056795D02*
X52461366Y-75104414D01*
X52461366Y-75104414D02*
X52413747Y-75152033D01*
X52413747Y-75152033D02*
X52366128Y-75247271D01*
X52366128Y-75247271D02*
X52318509Y-75437747D01*
X52318509Y-75437747D02*
X52270890Y-75532985D01*
X52270890Y-75532985D02*
X52223271Y-75580604D01*
X52223271Y-75580604D02*
X52128033Y-75628223D01*
X52128033Y-75628223D02*
X52032795Y-75628223D01*
X52032795Y-75628223D02*
X51937557Y-75580604D01*
X51937557Y-75580604D02*
X51889938Y-75532985D01*
X51889938Y-75532985D02*
X51842319Y-75437747D01*
X51842319Y-75437747D02*
X51842319Y-75199652D01*
X51842319Y-75199652D02*
X51889938Y-75056795D01*
X51842319Y-74723461D02*
X52842319Y-74485366D01*
X52842319Y-74485366D02*
X52128033Y-74294890D01*
X52128033Y-74294890D02*
X52842319Y-74104414D01*
X52842319Y-74104414D02*
X51842319Y-73866319D01*
X52842319Y-72961557D02*
X52842319Y-73532985D01*
X52842319Y-73247271D02*
X51842319Y-73247271D01*
X51842319Y-73247271D02*
X51985176Y-73342509D01*
X51985176Y-73342509D02*
X52080414Y-73437747D01*
X52080414Y-73437747D02*
X52128033Y-73532985D01*
X51842319Y-72342509D02*
X51842319Y-72247271D01*
X51842319Y-72247271D02*
X51889938Y-72152033D01*
X51889938Y-72152033D02*
X51937557Y-72104414D01*
X51937557Y-72104414D02*
X52032795Y-72056795D01*
X52032795Y-72056795D02*
X52223271Y-72009176D01*
X52223271Y-72009176D02*
X52461366Y-72009176D01*
X52461366Y-72009176D02*
X52651842Y-72056795D01*
X52651842Y-72056795D02*
X52747080Y-72104414D01*
X52747080Y-72104414D02*
X52794700Y-72152033D01*
X52794700Y-72152033D02*
X52842319Y-72247271D01*
X52842319Y-72247271D02*
X52842319Y-72342509D01*
X52842319Y-72342509D02*
X52794700Y-72437747D01*
X52794700Y-72437747D02*
X52747080Y-72485366D01*
X52747080Y-72485366D02*
X52651842Y-72532985D01*
X52651842Y-72532985D02*
X52461366Y-72580604D01*
X52461366Y-72580604D02*
X52223271Y-72580604D01*
X52223271Y-72580604D02*
X52032795Y-72532985D01*
X52032795Y-72532985D02*
X51937557Y-72485366D01*
X51937557Y-72485366D02*
X51889938Y-72437747D01*
X51889938Y-72437747D02*
X51842319Y-72342509D01*
D11*
%TO.C,SW6*%
X50165000Y-43021200D02*
X64135000Y-43021200D01*
X50165000Y-56991200D02*
X50165000Y-43021200D01*
X64135000Y-43021200D02*
X64135000Y-56991200D01*
X64135000Y-56991200D02*
X50165000Y-56991200D01*
%TO.C,SW13*%
X31115000Y-81121200D02*
X45085000Y-81121200D01*
X31115000Y-95091200D02*
X31115000Y-81121200D01*
X45085000Y-81121200D02*
X45085000Y-95091200D01*
X45085000Y-95091200D02*
X31115000Y-95091200D01*
%TO.C,SW8*%
X88265000Y-43021200D02*
X102235000Y-43021200D01*
X88265000Y-56991200D02*
X88265000Y-43021200D01*
X102235000Y-43021200D02*
X102235000Y-56991200D01*
X102235000Y-56991200D02*
X88265000Y-56991200D01*
%TO.C,SW9*%
X31115000Y-62071200D02*
X45085000Y-62071200D01*
X31115000Y-76041200D02*
X31115000Y-62071200D01*
X45085000Y-62071200D02*
X45085000Y-76041200D01*
X45085000Y-76041200D02*
X31115000Y-76041200D01*
%TO.C,SW12*%
X88265000Y-62071200D02*
X102235000Y-62071200D01*
X88265000Y-76041200D02*
X88265000Y-62071200D01*
X102235000Y-62071200D02*
X102235000Y-76041200D01*
X102235000Y-76041200D02*
X88265000Y-76041200D01*
%TO.C,SW1*%
X31115000Y-23971200D02*
X45085000Y-23971200D01*
X31115000Y-37941200D02*
X31115000Y-23971200D01*
X45085000Y-23971200D02*
X45085000Y-37941200D01*
X45085000Y-37941200D02*
X31115000Y-37941200D01*
%TO.C,SW4*%
X88265000Y-23971200D02*
X102235000Y-23971200D01*
X88265000Y-37941200D02*
X88265000Y-23971200D01*
X102235000Y-23971200D02*
X102235000Y-37941200D01*
X102235000Y-37941200D02*
X88265000Y-37941200D01*
%TO.C,SW3*%
X69215000Y-23971200D02*
X83185000Y-23971200D01*
X69215000Y-37941200D02*
X69215000Y-23971200D01*
X83185000Y-23971200D02*
X83185000Y-37941200D01*
X83185000Y-37941200D02*
X69215000Y-37941200D01*
%TO.C,SW15*%
X69215000Y-81121200D02*
X83185000Y-81121200D01*
X69215000Y-95091200D02*
X69215000Y-81121200D01*
X83185000Y-81121200D02*
X83185000Y-95091200D01*
X83185000Y-95091200D02*
X69215000Y-95091200D01*
%TO.C,SW16*%
X88265000Y-81121200D02*
X102235000Y-81121200D01*
X88265000Y-95091200D02*
X88265000Y-81121200D01*
X102235000Y-81121200D02*
X102235000Y-95091200D01*
X102235000Y-95091200D02*
X88265000Y-95091200D01*
%TO.C,SW2*%
X50165000Y-23971200D02*
X64135000Y-23971200D01*
X50165000Y-37941200D02*
X50165000Y-23971200D01*
X64135000Y-23971200D02*
X64135000Y-37941200D01*
X64135000Y-37941200D02*
X50165000Y-37941200D01*
%TO.C,SW14*%
X50165000Y-81121200D02*
X64135000Y-81121200D01*
X50165000Y-95091200D02*
X50165000Y-81121200D01*
X64135000Y-81121200D02*
X64135000Y-95091200D01*
X64135000Y-95091200D02*
X50165000Y-95091200D01*
%TO.C,SW7*%
X69215000Y-43021200D02*
X83185000Y-43021200D01*
X69215000Y-56991200D02*
X69215000Y-43021200D01*
X83185000Y-43021200D02*
X83185000Y-56991200D01*
X83185000Y-56991200D02*
X69215000Y-56991200D01*
%TO.C,SW5*%
X31115000Y-43021200D02*
X45085000Y-43021200D01*
X31115000Y-56991200D02*
X31115000Y-43021200D01*
X45085000Y-43021200D02*
X45085000Y-56991200D01*
X45085000Y-56991200D02*
X31115000Y-56991200D01*
%TO.C,SW11*%
X69215000Y-62071200D02*
X83185000Y-62071200D01*
X69215000Y-76041200D02*
X69215000Y-62071200D01*
X83185000Y-62071200D02*
X83185000Y-76041200D01*
X83185000Y-76041200D02*
X69215000Y-76041200D01*
%TO.C,SW10*%
X50165000Y-62071200D02*
X64135000Y-62071200D01*
X50165000Y-76041200D02*
X50165000Y-62071200D01*
X64135000Y-62071200D02*
X64135000Y-76041200D01*
X64135000Y-76041200D02*
X50165000Y-76041200D01*
%TD*%
M02*
