M48
; DRILL file {KiCad 9.0.2} date 2025-06-30T12:44:24+0200
; FORMAT={-:-/ absolute / metric / decimal}
; #@! TF.CreationDate,2025-06-30T12:44:24+02:00
; #@! TF.GenerationSoftware,Kicad,Pcbnew,9.0.2
; #@! TF.FileFunction,NonPlated,1,2,NPTH
FMAT,2
METRIC
; #@! TA.AperFunction,NonPlated,NPTH,ComponentDrill
T1C1.700
; #@! TA.AperFunction,NonPlated,NPTH,ComponentDrill
T2C4.000
%
G90
G05
T1
X33.02Y-30.956
X33.02Y-50.006
X33.02Y-69.056
X33.02Y-88.106
X43.18Y-30.956
X43.18Y-50.006
X43.18Y-69.056
X43.18Y-88.106
X52.07Y-30.956
X52.07Y-50.006
X52.07Y-69.056
X52.07Y-88.106
X62.23Y-30.956
X62.23Y-50.006
X62.23Y-69.056
X62.23Y-88.106
X71.12Y-30.956
X71.12Y-50.006
X71.12Y-69.056
X71.12Y-88.106
X81.28Y-30.956
X81.28Y-50.006
X81.28Y-69.056
X81.28Y-88.106
X90.17Y-30.956
X90.17Y-50.006
X90.17Y-69.056
X90.17Y-88.106
X100.33Y-30.956
X100.33Y-50.006
X100.33Y-69.056
X100.33Y-88.106
T2
X38.1Y-30.956
X38.1Y-50.006
X38.1Y-69.056
X38.1Y-88.106
X57.15Y-30.956
X57.15Y-50.006
X57.15Y-69.056
X57.15Y-88.106
X76.2Y-30.956
X76.2Y-50.006
X76.2Y-69.056
X76.2Y-88.106
X95.25Y-30.956
X95.25Y-50.006
X95.25Y-69.056
X95.25Y-88.106
M30
